<?xml version="1.0" encoding="UTF-8" standalone="no"?>
<svg width="21px" height="16px" viewBox="0 0 21 16" version="1.1" xmlns="http://www.w3.org/2000/svg" xmlns:xlink="http://www.w3.org/1999/xlink">
    <!-- Generator: Sketch 39.1 (31720) - http://www.bohemiancoding.com/sketch -->
    <title>icon-audio-on</title>
    <desc>Created with Sketch.</desc>
    <defs></defs>
    <g id="Page-1" stroke="none" stroke-width="1" fill="none" fill-rule="evenodd">
        <g id="icon-audio-on" fill="#54B078">
            <g id="Group">
                <g id="miu">
                    <g id="Artboard-1">
                        <path d="M3.125,4.8 L1.041667,4.8 C0,4.8 0,5.866667 0,5.866667 L0,10.133333 C0,10.133333 0,11.2 1.041667,11.2 L3.125,11.2 L11,16 L11,0 L3.125,4.8 L3.125,4.8 Z M17.604021,0.269989 C19.691674,2.189086 21,4.942759 21,8.002007 C21,11.151387 19.613446,13.976921 17.417486,15.90146 L16.615994,15.271717 C18.685249,13.529054 20,10.919069 20,8.002007 C20,5.191061 18.779165,2.665257 16.838796,0.925896 L17.604021,0.269989 L17.604021,0.269989 Z M15.146204,2.37669 C16.891101,3.844199 18,6.043605 18,8.502007 C18,10.813711 17.019495,12.896405 15.451677,14.356896 L14.654446,13.730501 C16.09362,12.448425 17,10.581064 17,8.502007 C17,6.291536 15.975416,4.320368 14.375249,3.037508 L15.146204,2.37669 L15.146204,2.37669 Z M12.818718,4.371677 C14.135703,5.27218 15,6.78616 15,8.502007 C15,10.116879 14.234435,11.552944 13.04644,12.467067 L12.228376,11.824303 C13.29691,11.106184 14,9.886203 14,8.502007 C14,7.031868 13.206892,5.74697 12.0252,5.051836 L12.818718,4.371677 L12.818718,4.371677 L12.818718,4.371677 Z" id="device-volume-loudspeaker-speaker-up-glyph"></path>
                    </g>
                </g>
            </g>
        </g>
    </g>
</svg>