<svg width="201" height="31" viewBox="0 0 201 31" fill="none" xmlns="http://www.w3.org/2000/svg">
<path d="M0.46 30.16C0.274 30.16 0.14 30.107 0.06 30C-0.02 29.893 -0.02 29.747 0.06 29.56L11.78 1.2C11.887 0.933 12.087 0.8 12.38 0.8H16.1C16.394 0.8 16.594 0.933 16.7 1.2L28.42 29.56C28.5 29.747 28.5 29.893 28.42 30C28.34 30.107 28.207 30.16 28.02 30.16H22.98C22.687 30.16 22.487 30.027 22.38 29.76L20.3 24.28H8.1L6.02 29.76C5.914 30.027 5.714 30.16 5.42 30.16H0.46V30.16ZM9.98 19.28H18.38L14.18 8.16L9.98 19.28V19.28ZM33.018 30.16C32.672 30.16 32.498 29.987 32.498 29.64V1.32C32.498 0.973 32.672 0.8 33.018 0.8H37.378C37.725 0.8 37.898 0.973 37.898 1.32V29.64C37.898 29.987 37.725 30.16 37.378 30.16H33.018V30.16ZM53.605 30.16C53.258 30.16 53.085 29.987 53.085 29.64V1.32C53.085 0.973 53.258 0.8 53.605 0.8H63.365C68.245 0.8 71.938 2.093 74.445 4.68C76.951 7.267 78.205 10.867 78.205 15.48C78.205 20.067 76.951 23.667 74.445 26.28C71.938 28.867 68.245 30.16 63.365 30.16H53.605V30.16ZM62.765 5.88H58.485V25.08H62.765C66.018 25.08 68.471 24.253 70.125 22.6C71.778 20.92 72.605 18.547 72.605 15.48C72.605 12.387 71.778 10.013 70.125 8.36C68.471 6.707 66.018 5.88 62.765 5.88V5.88ZM92.429 30.56C90.269 30.56 88.403 30.107 86.829 29.2C85.2774 28.2894 84.0154 26.958 83.189 25.36C82.363 23.733 81.949 21.88 81.949 19.8C81.949 17.693 82.363 15.84 83.189 14.24C84.0095 12.6481 85.2739 11.3282 86.829 10.44C88.403 9.507 90.269 9.04 92.429 9.04C94.563 9.04 96.363 9.533 97.829 10.52C99.323 11.507 100.443 12.893 101.189 14.68C101.963 16.44 102.309 18.507 102.229 20.88C102.203 21.227 102.016 21.4 101.669 21.4H87.469C87.709 22.813 88.256 23.933 89.109 24.76C89.963 25.56 91.083 25.96 92.469 25.96C94.549 25.96 96.069 25.173 97.029 23.6C97.163 23.36 97.389 23.28 97.709 23.36L101.269 24.6C101.616 24.733 101.709 24.96 101.549 25.28C100.643 27.093 99.376 28.427 97.749 29.28C96.123 30.133 94.349 30.56 92.429 30.56V30.56ZM92.389 13.64C91.163 13.64 90.123 13.987 89.269 14.68C88.443 15.347 87.869 16.293 87.549 17.52H96.669C96.429 16.293 95.936 15.347 95.189 14.68C94.443 13.987 93.509 13.64 92.389 13.64ZM112.664 30.16C112.398 30.16 112.198 30.027 112.064 29.76L103.224 10.04C103.038 9.64 103.171 9.44 103.624 9.44H108.584C108.878 9.44 109.078 9.573 109.184 9.84L114.144 22.44L119.104 9.84C119.211 9.573 119.411 9.44 119.704 9.44H124.344C124.798 9.44 124.931 9.64 124.744 10.04L115.904 29.76C115.771 30.027 115.571 30.16 115.304 30.16H112.664V30.16ZM130.946 5.76C130.092 5.76 129.372 5.493 128.786 4.96C128.199 4.427 127.906 3.733 127.906 2.88C127.906 2.027 128.199 1.333 128.786 0.8C129.372 0.267 130.092 0 130.946 0C131.799 0 132.519 0.267 133.106 0.8C133.692 1.333 133.986 2.027 133.986 2.88C133.986 3.733 133.692 4.427 133.106 4.96C132.519 5.493 131.799 5.76 130.946 5.76ZM128.866 30.16C128.519 30.16 128.346 29.987 128.346 29.64V9.96C128.346 9.613 128.519 9.44 128.866 9.44H133.026C133.372 9.44 133.546 9.613 133.546 9.96V29.64C133.546 29.987 133.372 30.16 133.026 30.16H128.866V30.16ZM148.411 30.56C146.224 30.56 144.331 30.107 142.731 29.2C141.157 28.293 139.931 27.027 139.051 25.4C138.197 23.773 137.771 21.907 137.771 19.8C137.771 17.667 138.197 15.8 139.051 14.2C139.931 12.573 141.157 11.307 142.731 10.4C144.331 9.493 146.211 9.04 148.371 9.04C150.691 9.04 152.651 9.533 154.251 10.52C155.851 11.48 157.024 12.987 157.771 15.04C157.904 15.387 157.784 15.613 157.411 15.72L153.971 16.72C153.677 16.8 153.451 16.693 153.291 16.4C152.384 14.64 150.851 13.76 148.691 13.76C147.437 13.76 146.397 14.04 145.571 14.6C144.748 15.1288 144.106 15.8964 143.731 16.8C143.331 17.707 143.131 18.707 143.131 19.8C143.131 20.893 143.331 21.907 143.731 22.84C144.131 23.747 144.744 24.48 145.571 25.04C146.397 25.573 147.437 25.84 148.691 25.84C150.904 25.84 152.451 24.92 153.331 23.08C153.491 22.787 153.717 22.68 154.011 22.76L157.811 23.68C158.157 23.76 158.264 23.973 158.131 24.32C157.304 26.453 156.051 28.027 154.371 29.04C152.691 30.053 150.704 30.56 148.411 30.56V30.56ZM171.376 30.56C169.216 30.56 167.349 30.107 165.776 29.2C164.224 28.29 162.962 26.9585 162.136 25.36C161.309 23.733 160.896 21.88 160.896 19.8C160.896 17.693 161.309 15.84 162.136 14.24C162.956 12.6477 164.22 11.3276 165.776 10.44C167.349 9.507 169.216 9.04 171.376 9.04C173.509 9.04 175.309 9.533 176.776 10.52C178.269 11.507 179.389 12.893 180.136 14.68C180.909 16.44 181.256 18.507 181.176 20.88C181.149 21.227 180.962 21.4 180.616 21.4H166.416C166.656 22.813 167.202 23.933 168.056 24.76C168.909 25.56 170.029 25.96 171.416 25.96C173.496 25.96 175.016 25.173 175.976 23.6C176.109 23.36 176.336 23.28 176.656 23.36L180.216 24.6C180.562 24.733 180.656 24.96 180.496 25.28C179.589 27.093 178.322 28.427 176.696 29.28C175.069 30.133 173.296 30.56 171.376 30.56V30.56ZM171.336 13.64C170.109 13.64 169.069 13.987 168.216 14.68C167.389 15.347 166.816 16.293 166.496 17.52H175.616C175.376 16.293 174.882 15.347 174.136 14.68C173.389 13.987 172.456 13.64 171.336 13.64ZM192.465 30.56C190.199 30.56 188.292 30.093 186.745 29.16C185.225 28.2 184.132 26.827 183.465 25.04C183.332 24.693 183.452 24.48 183.825 24.4L187.465 23.4C187.759 23.32 187.972 23.427 188.105 23.72C188.585 24.547 189.172 25.133 189.865 25.48C190.585 25.8 191.385 25.96 192.265 25.96C193.145 25.96 193.865 25.853 194.425 25.64C195.012 25.427 195.305 25.027 195.305 24.44C195.305 23.987 195.065 23.627 194.585 23.36C194.105 23.067 193.319 22.76 192.225 22.44L191.225 22.16C188.745 21.467 186.972 20.52 185.905 19.32C184.865 18.12 184.345 16.72 184.345 15.12C184.345 13.947 184.679 12.907 185.345 12C186.012 11.067 186.932 10.347 188.105 9.84C189.305 9.307 190.679 9.04 192.225 9.04C194.225 9.04 195.919 9.467 197.305 10.32C198.692 11.173 199.705 12.48 200.345 14.24C200.479 14.587 200.372 14.8 200.025 14.88L196.385 16.04C196.092 16.147 195.865 16.053 195.705 15.76C195.378 15.1406 194.896 14.6168 194.305 14.24C193.745 13.84 193.025 13.64 192.145 13.64C191.479 13.64 190.905 13.76 190.425 14C189.945 14.213 189.705 14.587 189.705 15.12C189.705 15.6 189.945 16 190.425 16.32C190.932 16.613 191.759 16.907 192.905 17.2L193.865 17.44C196.399 18.08 198.159 18.96 199.145 20.08C200.159 21.173 200.665 22.587 200.665 24.32C200.665 25.573 200.305 26.68 199.585 27.64C198.892 28.573 197.932 29.293 196.705 29.8C195.479 30.307 194.065 30.56 192.465 30.56V30.56Z" fill="black"/>
</svg>
