<svg width="153" height="17" viewBox="0 0 153 17" fill="none" xmlns="http://www.w3.org/2000/svg">
<path fill-rule="evenodd" clip-rule="evenodd" d="M11.889 11.45L11.933 11.397L11.972 11.35L14.837 13.701L14.771 13.779C13.988 14.7177 13.0082 15.4727 11.901 15.9906C10.7939 16.5085 9.58634 16.7766 8.364 16.776C3.752 16.776 0 13.014 0 8.38804C0 3.76204 3.752 3.64237e-05 8.364 3.64237e-05C9.58644 -0.000593047 10.7941 0.267644 11.9013 0.78574C13.0085 1.30383 13.9882 2.05911 14.771 2.99804L14.836 3.07504L11.97 5.42804C11.5335 4.89254 10.9836 4.46046 10.3601 4.16288C9.73661 3.8653 9.05488 3.70962 8.364 3.70704C5.791 3.70704 3.697 5.80704 3.697 8.38804C3.697 10.969 5.79 13.07 8.364 13.07C9.01229 13.0684 9.65313 12.9317 10.2457 12.6688C10.8383 12.4059 11.3697 12.0225 11.806 11.543L11.865 11.48L11.889 11.451V11.45ZM39.145 11.343L39.102 11.395C39.062 11.445 39.022 11.495 38.979 11.542C38.5287 12.039 37.9763 12.4326 37.3596 12.696C36.7429 12.9594 36.0765 13.0862 35.4061 13.0679C34.7358 13.0496 34.0773 12.8865 33.476 12.5898C32.8746 12.2931 32.3445 11.8698 31.922 11.349C31.2422 10.5123 30.8711 9.46711 30.8711 8.38904C30.8711 7.31096 31.2422 6.26574 31.922 5.42904C32.3239 4.93362 32.8234 4.5262 33.3895 4.23211C33.9556 3.93802 34.5761 3.76355 35.2125 3.71956C35.8489 3.67557 36.4876 3.763 37.0888 3.9764C37.6899 4.18981 38.2408 4.52463 38.707 4.96004C38.848 5.09104 38.987 5.24204 39.145 5.43404C39.838 6.28304 40.205 7.30404 40.205 8.38804C40.205 9.47204 39.838 10.493 39.145 11.343ZM41.575 2.58604C40.7978 1.76612 39.8612 1.11377 38.8227 0.669067C37.7842 0.22436 36.6657 -0.00331289 35.536 3.64237e-05C34.2946 -0.00119667 33.0686 0.274984 31.9476 0.80839C30.8267 1.3418 29.8391 2.11895 29.057 3.08304C27.8382 4.58257 27.1723 6.45568 27.171 8.38804C27.1732 10.3207 27.8394 12.194 29.058 13.694C29.8399 14.658 30.8273 15.4351 31.9481 15.9683C33.069 16.5016 34.2948 16.7775 35.536 16.776C36.7583 16.7765 37.9658 16.5083 39.073 15.9904C40.1801 15.4725 41.1599 14.7176 41.943 13.779C41.957 13.763 42.011 13.691 42.011 13.691C43.2306 12.1925 43.8979 10.3202 43.901 8.38804C43.8986 6.2266 43.0651 4.14887 41.573 2.58504L41.575 2.58604ZM100.777 0.0160364C99.715 0.0160364 98.817 0.916036 98.817 1.98204C98.817 3.04804 99.715 3.94804 100.777 3.94804C101.84 3.94804 102.738 3.04804 102.738 1.98204C102.738 0.916036 101.84 0.0160364 100.777 0.0160364ZM79.1 16.207H82.572V10.416H88.415V7.06904H82.572V3.90304H88.527V0.557036H79.1V16.207ZM93.838 7.02504L93.718 7.00704V5.06304H90.47V16.207H93.718V11.176C93.718 9.20004 95.254 8.49904 96.569 8.49904C96.745 8.49904 96.919 8.51104 97.089 8.53504V4.83804C95.779 4.85904 94.281 5.53804 93.839 7.02504H93.838ZM102.402 16.207H99.154V5.06404H102.402V16.207ZM107.573 9.44704L107.552 9.52504H112.545L112.523 9.44704C112.204 8.28704 111.314 7.62204 110.081 7.62204C108.786 7.62204 107.895 8.27004 107.573 9.44704ZM104.189 10.635C104.189 7.22404 106.676 4.74804 110.104 4.74804C113.323 4.74804 115.75 7.27904 115.75 10.635C115.75 11.083 115.709 11.517 115.627 11.925H107.612L107.642 12.008C108.033 13.082 108.96 13.626 110.396 13.626C111.258 13.626 112.065 13.313 112.565 12.786L115.16 14.282C114.066 15.769 112.449 16.522 110.351 16.522C106.723 16.522 104.189 14.102 104.189 10.635ZM124.183 4.74804C122.796 4.74804 121.643 5.24004 121.019 6.09804L120.908 6.25004V5.06304H117.66V16.207H120.908V10.117C120.908 8.60204 121.692 7.73404 123.059 7.73404C124.034 7.73404 125.076 8.28904 125.076 9.84704V16.207H128.323V9.35104C128.323 6.17104 126.244 4.74804 124.183 4.74804V4.74804ZM133.121 10.635C133.121 12.316 134.22 13.446 135.856 13.446C137.493 13.446 138.592 12.316 138.592 10.636C138.592 8.95304 137.493 7.82404 135.856 7.82404C134.22 7.82404 133.121 8.95404 133.121 10.635ZM138.484 6.10104L138.592 6.22604V0.556036H141.839V16.207H138.592V15.045L138.484 15.169C137.706 16.067 136.595 16.523 135.182 16.523C132.205 16.523 129.873 13.937 129.873 10.635C129.873 7.33504 132.205 4.74804 135.182 4.74804C136.595 4.74804 137.706 5.20304 138.484 6.10104V6.10104ZM148.966 9.23504L148.962 9.23304C148.039 8.98904 147.31 8.79704 147.31 8.29204C147.31 7.85804 147.686 7.59904 148.316 7.59904C148.977 7.59904 149.478 7.91604 149.846 8.56904L152.611 7.07304C151.713 5.59404 150.152 4.74804 148.316 4.74804C146.154 4.74804 143.974 5.87204 143.974 8.38204C143.974 10.828 146.196 11.449 147.819 11.902L147.822 11.903C148.76 12.166 149.501 12.373 149.501 12.866C149.501 13.213 149.28 13.626 148.226 13.626C147.256 13.626 146.603 13.189 146.282 12.326L143.475 13.928C144.315 15.626 145.956 16.523 148.226 16.523C150.456 16.523 152.838 15.568 152.838 12.889C152.838 10.255 150.601 9.66504 148.966 9.23504V9.23504ZM51.822 10.597L55.682 0.507036H59.552L53.522 16.27H50.122L44.092 0.506036H47.962L51.822 10.597V10.597ZM20.34 0.507036H16.728V16.27H26.442V12.648H20.34V0.506036V0.507036ZM65.452 5.10304L63.669 10.243H67.235L65.452 5.10304V5.10304ZM63.752 0.506036H67.152L73.182 16.27H69.312L68.318 13.499H62.585L61.592 16.269H57.722L63.752 0.507036V0.506036Z" fill="black"/>
</svg>
