<svg width="139" height="17" viewBox="0 0 139 17" fill="none" xmlns="http://www.w3.org/2000/svg">
<path fill-rule="evenodd" clip-rule="evenodd" d="M11.881 11.45L11.925 11.397L11.964 11.35L14.827 13.701L14.762 13.779C13.9797 14.7174 13.0006 15.4723 11.8941 15.9902C10.7876 16.5081 9.58072 16.7764 8.359 16.776C3.749 16.776 0 13.014 0 8.38804C0 3.76204 3.75 3.95766e-05 8.359 3.95766e-05C9.58072 -0.000331571 10.7876 0.267941 11.8941 0.785855C13.0006 1.30377 13.9797 2.05865 14.762 2.99704L14.826 3.07504L11.963 5.42704C11.527 4.89151 10.9775 4.45944 10.3543 4.162C9.73107 3.86456 9.04957 3.70917 8.359 3.70704C5.787 3.70704 3.694 5.80704 3.694 8.38804C3.694 10.969 5.787 13.07 8.36 13.07C9.00795 13.0681 9.64841 12.9313 10.2406 12.6684C10.8329 12.4055 11.3639 12.0223 11.8 11.543L11.858 11.48L11.882 11.45H11.881ZM39.119 11.343L39.077 11.394C39.037 11.444 38.997 11.494 38.954 11.542C38.5042 12.039 37.9521 12.4326 37.3358 12.696C36.7194 12.9593 36.0534 13.0862 35.3834 13.0677C34.7134 13.0493 34.0553 12.886 33.4543 12.5892C32.8534 12.2923 32.3238 11.8689 31.902 11.348C31.223 10.515 30.849 9.46404 30.849 8.38804C30.849 7.31204 31.223 6.26104 31.902 5.42804C32.3032 4.9323 32.8023 4.52457 33.3681 4.23026C33.934 3.93596 34.5543 3.76141 35.1906 3.7175C35.8269 3.67359 36.4653 3.76126 37.0662 3.97504C37.6671 4.18882 38.2175 4.52413 38.683 4.96004C38.823 5.09004 38.962 5.24204 39.119 5.43404C39.812 6.28304 40.179 7.30404 40.179 8.38804C40.179 9.47204 39.812 10.493 39.119 11.342V11.343ZM41.547 2.58604C40.7709 1.76608 39.8352 1.11365 38.7975 0.668913C37.7598 0.224177 36.642 -0.00345243 35.513 3.95766e-05C34.2723 -0.00101714 33.0471 0.275269 31.927 0.80869C30.8069 1.34211 29.8201 2.11917 29.039 3.08304C27.8212 4.583 27.1561 6.45598 27.155 8.38804C27.155 9.89104 27.561 11.368 28.315 12.652C28.529 13.016 28.771 13.364 29.04 13.694C29.821 14.6578 30.8075 15.4348 31.9275 15.968C33.0475 16.5013 34.2725 16.7774 35.513 16.776C36.7349 16.7766 37.9419 16.5084 39.0486 15.9904C40.1553 15.4725 41.1346 14.7176 41.917 13.779L41.985 13.691C43.2031 12.1919 43.8693 10.3197 43.872 8.38804C43.8701 6.22708 43.0377 4.14951 41.547 2.58504V2.58604ZM16.718 0.50604H20.328V12.648H26.426V16.27H16.718V0.50604V0.50604ZM51.788 10.597L55.646 0.50704H59.513L53.487 16.27H50.088L44.064 0.50604H47.931L51.789 10.597H51.788ZM95.608 0.55704L92.848 11.78L89.764 0.55604H86.94L83.858 11.78L81.096 0.55604H77.452L81.752 16.206H85.746L88.353 6.73004L90.959 16.207H94.952L99.252 0.55704H95.61H95.608ZM128.937 0.55704V16.207H138.695V12.86H132.407V9.94304H138.021V6.64004H132.407V3.90304H138.583V0.55604H128.937V0.55704ZM119.3 10.597L115.442 0.50804H111.574L117.6 16.27H120.999L127.025 0.50704H123.157L119.3 10.597ZM63.628 10.242L65.41 5.10204L67.192 10.242H63.628V10.242ZM65.41 0.50604H63.71L57.685 16.27H61.554L62.547 13.499H68.275L69.269 16.269H73.137L67.11 0.50704H65.41V0.50604ZM105.938 5.10304L104.156 10.242H107.719L105.938 5.10204V5.10304ZM104.238 0.50604H107.637L113.663 16.27H109.795L108.802 13.499H103.074L102.08 16.269H98.212L104.238 0.50704V0.50604Z" fill="black"/>
</svg>
