<svg width="136" height="17" viewBox="0 0 136 17" fill="none" xmlns="http://www.w3.org/2000/svg">
<path fill-rule="evenodd" clip-rule="evenodd" d="M98.109 16.427H94.856V0H98.109V16.427ZM82.024 8.554C82.024 11.456 83.851 13.332 86.677 13.332C88.285 13.332 89.651 12.612 90.346 11.405L93.343 13.155C91.963 15.404 89.477 16.745 86.677 16.745C82.042 16.745 78.547 13.223 78.547 8.554C78.547 3.884 82.042 0.364 86.677 0.364C89.454 0.364 91.941 1.704 93.343 3.953L90.345 5.703C89.629 4.495 88.263 3.776 86.677 3.776C83.851 3.776 82.024 5.651 82.024 8.554V8.554ZM105.779 13.558C104.243 13.558 103.129 12.407 103.129 10.821C103.129 9.235 104.243 8.084 105.779 8.084C107.314 8.084 108.428 9.234 108.428 10.821C108.428 12.407 107.314 13.558 105.779 13.558ZM105.779 4.898C102.469 4.898 99.876 7.5 99.876 10.821C99.876 14.142 102.469 16.744 105.779 16.744C109.088 16.744 111.681 14.142 111.681 10.821C111.681 7.5 109.088 4.898 105.779 4.898ZM121.032 9.374C120.628 8.593 119.807 8.129 118.824 8.129C117.29 8.129 116.219 9.235 116.219 10.821C116.219 12.406 117.29 13.513 118.824 13.513C119.813 13.513 120.653 13.038 121.034 12.268L123.872 13.905C122.886 15.658 120.975 16.745 118.869 16.745C115.504 16.745 112.967 14.198 112.967 10.821C112.967 7.444 115.504 4.898 118.869 4.898C120.97 4.898 122.881 5.976 123.872 7.715L121.032 9.374V9.374ZM131.838 10.821L135.889 5.215H132.105L128.635 10.319V0.68H125.382V16.426H128.635V11.286L132.328 16.426H136L131.838 10.82V10.821ZM51.902 10.783L55.768 0.63H59.644L53.604 16.49H50.2L44.159 0.63H48.036L51.902 10.783V10.783ZM20.372 0.63H16.754V16.49H26.483V12.846H20.372V0.63ZM65.553 5.255L63.767 10.425H67.339L65.554 5.255H65.553ZM63.85 0.63H67.257L73.296 16.49H69.419L68.424 13.702H62.682L61.687 16.49H57.811L63.85 0.63ZM39.205 11.533L39.162 11.585C39.122 11.635 39.082 11.685 39.039 11.733C38.6029 12.2151 38.071 12.6008 37.4772 12.8654C36.8835 13.1301 36.241 13.2679 35.591 13.27C34.8965 13.2701 34.2109 13.1146 33.5844 12.8149C32.9579 12.5152 32.4066 12.0788 31.971 11.538C31.29 10.6951 30.9185 9.64415 30.9185 8.5605C30.9185 7.47685 31.29 6.42594 31.971 5.583C32.4068 5.04232 32.9581 4.6061 33.5845 4.30639C34.211 4.00667 34.8966 3.85107 35.591 3.851C36.77 3.851 37.897 4.298 38.767 5.111C38.908 5.243 39.047 5.395 39.205 5.588C39.899 6.442 40.266 7.47 40.266 8.56C40.266 9.65 39.899 10.679 39.205 11.533V11.533ZM41.638 2.723C40.8618 1.8985 39.9246 1.24207 38.8845 0.79434C37.8443 0.346606 36.7234 0.117091 35.591 0.12C34.3465 0.119285 33.1176 0.397575 31.9948 0.934398C30.872 1.47122 29.8839 2.25292 29.103 3.222C28.0187 4.56311 27.3685 6.20265 27.2389 7.92242C27.1094 9.64219 27.5067 11.3606 28.378 12.849C28.592 13.215 28.835 13.566 29.104 13.898C29.885 14.8665 30.8731 15.6478 31.9957 16.1844C33.1183 16.7211 34.3468 16.9994 35.591 16.999C38.071 16.999 40.411 15.899 42.008 13.983C42.022 13.967 42.077 13.894 42.077 13.894C43.2992 12.3843 43.967 10.5014 43.969 8.559C43.9671 6.38682 43.1329 4.29793 41.638 2.722V2.723ZM11.918 11.629C11.928 11.615 11.94 11.602 11.952 11.589L11.99 11.539L14.86 13.906H14.859L14.794 13.984C14.0117 14.9273 13.0311 15.6866 11.922 16.2079C10.8129 16.7292 9.6025 16.9996 8.377 17C3.757 17 0 13.214 0 8.56C0 3.906 3.758 0.12 8.377 0.12C10.857 0.12 13.197 1.22 14.794 3.137L14.859 3.214L11.989 5.582C11.5532 5.04347 11.0029 4.60872 10.3781 4.30931C9.75338 4.0099 9.0698 3.85335 8.377 3.851C5.799 3.851 3.702 5.964 3.702 8.561C3.702 11.158 5.8 13.27 8.377 13.27C9.682 13.27 10.938 12.71 11.824 11.733L11.883 11.67L11.917 11.629H11.918Z" fill="black"/>
</svg>
