<svg width="200" height="17" viewBox="0 0 200 17" fill="none" xmlns="http://www.w3.org/2000/svg">
<path fill-rule="evenodd" clip-rule="evenodd" d="M11.894 11.479L11.963 11.398L12.001 11.35L14.873 13.702L14.808 13.779C14.0219 14.7183 13.0393 15.4735 11.9295 15.9915C10.8197 16.5095 9.60975 16.7777 8.385 16.777C3.76 16.777 0 13.014 0 8.38805C0 3.76305 3.761 4.80081e-05 8.385 4.80081e-05C9.60974 -0.00052627 10.8197 0.26765 11.9295 0.78566C13.0393 1.30367 14.0219 2.05889 14.808 2.99805L14.873 3.07505L12 5.42805C11.5618 4.89218 11.0104 4.45996 10.3854 4.16241C9.76036 3.86486 9.07723 3.70935 8.385 3.70705C5.805 3.70705 3.705 5.80705 3.705 8.38805C3.705 10.97 5.805 13.069 8.385 13.069C9.03449 13.0676 9.67658 12.9311 10.2705 12.6682C10.8644 12.4053 11.3972 12.0218 11.835 11.542L11.894 11.479ZM39.241 11.343L39.199 11.395C39.159 11.445 39.119 11.495 39.075 11.542C38.637 12.0216 38.1042 12.4049 37.5103 12.6678C36.9164 12.9306 36.2744 13.0673 35.625 13.069C34.215 13.069 32.895 12.442 32.001 11.349C31.3199 10.5128 30.9473 9.46759 30.946 8.38905C30.9471 7.14832 31.4401 5.95866 32.3171 5.08096C33.194 4.20325 34.3833 3.70917 35.624 3.70705C36.804 3.70705 37.932 4.15205 38.803 4.96005C38.944 5.09105 39.083 5.24205 39.241 5.43505C39.9295 6.26493 40.3056 7.30974 40.304 8.38805C40.3056 9.46695 39.9295 10.5124 39.241 11.343V11.343ZM41.677 2.58605C40.8973 1.76555 39.9583 1.11295 38.9174 0.668268C37.8766 0.223589 36.7559 -0.00379894 35.624 4.80081e-05C34.3804 -0.00164443 33.152 0.274248 32.0286 0.807607C30.9051 1.34097 29.9148 2.11834 29.13 3.08305C27.9083 4.58122 27.2408 6.45492 27.24 8.38805C27.2414 10.3214 27.9088 12.1952 29.13 13.694C29.9148 14.6588 30.905 15.4362 32.0285 15.9696C33.152 16.503 34.3804 16.7788 35.624 16.777C36.8488 16.7778 38.0588 16.5097 39.1686 15.9917C40.2784 15.4737 41.261 14.7184 42.047 13.779C42.061 13.763 42.116 13.691 42.116 13.691C43.3374 12.1933 44.0058 10.3207 44.009 8.38805C44.0068 6.2261 43.1716 4.14815 41.677 2.58605V2.58605ZM99.06 1.97305C99.06 0.907048 99.96 0.00704801 101.026 0.00704801C102.091 0.00704801 102.991 0.907048 102.991 1.97305C102.991 3.03905 102.091 3.93905 101.026 3.93905C99.96 3.93905 99.06 3.03905 99.06 1.97305V1.97305ZM79.295 16.198H82.775V10.407H88.633V7.06005H82.776V3.89405H88.745V0.548048H79.295V16.198ZM94.07 7.01605L93.95 6.99805V5.05405H90.694V16.198H93.95V11.167C93.95 9.19105 95.49 8.49105 96.808 8.49105C96.984 8.49105 97.158 8.50205 97.328 8.52605V4.83005C96.015 4.85105 94.514 5.53005 94.07 7.01705V7.01605ZM99.4 16.198H102.655V5.05505H99.4V16.198V16.198ZM107.839 9.43805L107.818 9.51605H112.823L112.801 9.43805C112.481 8.27805 111.589 7.61305 110.354 7.61305C109.055 7.61305 108.162 8.26105 107.839 9.43805V9.43805ZM104.447 10.626C104.447 7.21505 106.94 4.73905 110.376 4.73905C113.603 4.73905 116.036 7.27005 116.036 10.626C116.036 11.074 115.995 11.508 115.913 11.916H107.878L107.908 12C108.3 13.073 109.229 13.617 110.669 13.617C111.533 13.617 112.342 13.304 112.843 12.777L115.444 14.273C114.348 15.76 112.727 16.513 110.624 16.513C106.987 16.513 104.447 14.093 104.447 10.626ZM124.49 4.73905C123.1 4.73905 121.944 5.23105 121.318 6.08905L121.207 6.24105V5.05405H117.951V16.198H121.207V10.108C121.207 8.59405 121.993 7.72505 123.363 7.72505C124.341 7.72505 125.385 8.28005 125.385 9.83805V16.198H128.64V9.34205C128.64 6.16205 126.556 4.73905 124.49 4.73905V4.73905ZM133.449 10.626C133.449 12.307 134.551 13.437 136.192 13.437C137.833 13.437 138.934 12.307 138.934 10.627C138.934 8.94405 137.833 7.81605 136.192 7.81605C134.551 7.81605 133.449 8.94405 133.449 10.626ZM138.826 6.09205L138.934 6.21805V0.548048H142.19V16.198H138.934V15.036L138.826 15.16C138.046 16.058 136.933 16.514 135.516 16.514C132.532 16.514 130.194 13.928 130.194 10.626C130.194 7.32605 132.532 4.73905 135.516 4.73905C136.933 4.73905 138.047 5.19405 138.826 6.09205V6.09205ZM149.334 9.22605L149.33 9.22405C148.404 8.98005 147.674 8.78805 147.674 8.28305C147.674 7.84905 148.051 7.59005 148.682 7.59005C149.345 7.59005 149.848 7.90705 150.216 8.56005L152.988 7.06405C152.088 5.58505 150.523 4.73905 148.682 4.73905C146.515 4.73905 144.329 5.86305 144.329 8.37305C144.329 10.819 146.557 11.44 148.184 11.893L148.187 11.894C149.127 12.157 149.87 12.364 149.87 12.857C149.87 13.204 149.649 13.617 148.592 13.617C147.62 13.617 146.965 13.18 146.644 12.317L143.83 13.919C144.672 15.617 146.317 16.514 148.592 16.514C150.828 16.514 153.216 15.559 153.216 12.88C153.216 10.246 150.973 9.65605 149.334 9.22605V9.22605ZM167.117 6.20905C167.796 5.23905 168.877 4.74805 170.333 4.74805C172.895 4.74805 174.551 6.55505 174.551 9.35105V16.207H171.295V9.64405C171.295 8.43005 170.682 7.73405 169.612 7.73405C168.456 7.73405 167.793 8.52805 167.793 9.91405V16.207H164.538V9.64405C164.538 8.43005 163.924 7.73405 162.854 7.73405C161.698 7.73405 161.035 8.52805 161.035 9.91405V16.207H157.78V5.06305H161.035V6.24005L161.148 6.07305C161.726 5.21905 162.78 4.74805 164.115 4.74805C165.376 4.74805 166.379 5.25305 167.015 6.20805L167.065 6.28305L167.117 6.20905V6.20905ZM178.622 0.016048C177.556 0.016048 176.656 0.916048 176.656 1.98205C176.656 3.04805 177.556 3.94805 178.622 3.94805C179.687 3.94805 180.587 3.04805 180.587 1.98205C180.587 0.916048 179.687 0.016048 178.622 0.016048V0.016048ZM180.25 16.207H176.995V5.06305H180.25V16.207V16.207ZM189.39 4.74705C188 4.74705 186.844 5.24005 186.218 6.09705L186.107 6.25005V5.06305H182.851V16.207H186.107V10.117C186.107 8.60205 186.893 7.73405 188.263 7.73405C189.241 7.73405 190.285 8.28905 190.285 9.84705V16.207H193.54V9.35105C193.54 6.17105 191.455 4.74805 189.39 4.74805V4.74705ZM199.24 16.207H195.985V5.06305H199.24V16.207V16.207ZM197.612 3.94805C198.678 3.94805 199.578 3.04805 199.578 1.98205C199.578 0.916048 198.678 0.016048 197.612 0.016048C196.547 0.016048 195.646 0.916048 195.646 1.98205C195.646 3.04805 196.547 3.94805 197.612 3.94805ZM51.95 10.598L55.82 0.506048H59.699L53.654 16.27H50.245L44.2 0.507048H48.08L51.95 10.597V10.598ZM20.39 0.506048H16.77V16.27H26.507V12.648H20.39V0.507048V0.506048ZM65.614 5.10205L63.826 10.242H67.401L65.614 5.10205V5.10205ZM63.909 0.507048H67.319L73.364 16.27H69.484L68.487 13.5H62.741L61.745 16.27H57.865L63.908 0.507048H63.909Z" fill="black"/>
</svg>
