<svg width="143" height="22" viewBox="0 0 143 22" fill="none" xmlns="http://www.w3.org/2000/svg">
<path fill-rule="evenodd" clip-rule="evenodd" d="M12.547 12.027L12.583 11.985L12.623 11.935L15.645 14.407L15.576 14.488C14.749 15.4756 13.7153 16.2697 12.548 16.8143C11.3807 17.3589 10.1081 17.6408 8.82 17.64C3.956 17.64 0 13.683 0 8.82005C0 3.95605 3.956 4.71547e-05 8.82 4.71547e-05C10.1081 -0.000663274 11.3807 0.281225 12.548 0.825835C13.7153 1.37044 14.749 2.16451 15.576 3.15205L15.644 3.23305L12.623 5.70705C12.1618 5.14365 11.5817 4.68928 10.9242 4.37652C10.2667 4.06376 9.54809 3.90036 8.82 3.89805C7.51509 3.89964 6.26408 4.41871 5.34137 5.34142C4.41866 6.26413 3.89959 7.51514 3.898 8.82005C3.89959 10.125 4.41866 11.376 5.34137 12.2987C6.26408 13.2214 7.51509 13.7405 8.82 13.742C9.50329 13.7403 10.1788 13.5966 10.8036 13.3202C11.4285 13.0437 11.9891 12.6405 12.45 12.136L12.51 12.07H12.511L12.547 12.027V12.027ZM41.277 11.927L41.232 11.981C41.1906 12.0343 41.1472 12.086 41.102 12.136C40.6412 12.6406 40.0806 13.044 39.4557 13.3204C38.8308 13.5969 38.1553 13.7405 37.472 13.742C35.99 13.742 34.602 13.082 33.662 11.932C33.0729 11.211 32.7004 10.3377 32.588 9.41339C32.4755 8.48912 32.6276 7.55191 33.0266 6.71065C33.4256 5.86939 34.0551 5.15862 34.842 4.66092C35.6289 4.16323 36.5409 3.89904 37.472 3.89905C38.712 3.89905 39.9 4.36605 40.816 5.21505C40.964 5.35305 41.111 5.51205 41.276 5.71505C42.008 6.60605 42.394 7.68005 42.394 8.82005C42.394 9.96005 42.008 11.034 41.277 11.927ZM43.839 2.71905C43.0186 1.85642 42.0308 1.17033 40.936 0.702801C39.8412 0.235271 38.6624 -0.00386159 37.472 4.71547e-05C36.1641 -0.00175191 34.8722 0.288355 33.6906 0.849216C32.5091 1.41008 31.4675 2.22756 30.642 3.24205C29.3567 4.81706 28.6538 6.78714 28.652 8.82005C28.6545 10.8531 29.3573 12.8233 30.642 14.399C31.4676 15.4134 32.5092 16.2306 33.6908 16.7913C34.8723 17.352 36.1641 17.642 37.472 17.64C38.7601 17.641 40.0328 17.3592 41.2001 16.8145C42.3675 16.2699 43.4011 15.4757 44.228 14.488C44.243 14.472 44.3 14.395 44.3 14.395C45.5856 12.8212 46.2892 10.8522 46.292 8.82005C46.2895 6.54657 45.4109 4.36151 43.839 2.71905V2.71905ZM69.018 5.36605L67.138 10.77H70.898L69.018 5.36605V5.36605ZM67.224 0.532047H70.811L77.169 17.108H73.088L72.04 14.194H65.995L64.947 17.108H60.866L67.224 0.532047ZM21.448 0.532047H17.64V17.108H27.883V13.298H21.45V0.533047L21.448 0.532047ZM54.645 11.142L58.715 0.532047H62.795L56.437 17.108H52.852L46.494 0.532047H50.575L54.645 11.142ZM87.07 0.586047H83.409V17.042H92.993V13.523H87.07V0.585047V0.586047ZM100.866 14.139C99.14 14.139 97.981 12.951 97.981 11.183C97.981 9.41505 99.141 8.22805 100.866 8.22805C102.591 8.22805 103.75 9.41505 103.75 11.183C103.75 12.951 102.591 14.139 100.866 14.139ZM103.75 6.54805L103.636 6.41605C102.817 5.47205 101.645 4.99305 100.155 4.99305C97.016 4.99305 94.557 7.71305 94.557 11.183C94.557 14.655 97.016 17.374 100.155 17.374C101.645 17.374 102.816 16.895 103.636 15.951L103.75 15.82V17.042H107.175V5.32405H103.75V6.54705V6.54805ZM119.733 6.53005C120.447 5.51005 121.585 4.99305 123.115 4.99305C125.811 4.99305 127.552 6.89305 127.552 9.83305V17.043H124.128V10.14C124.128 8.86405 123.483 8.13205 122.357 8.13205C121.141 8.13205 120.444 8.96705 120.444 10.424V17.041H117.02V10.141C117.02 8.86405 116.375 8.13205 115.249 8.13205C114.033 8.13205 113.336 8.96705 113.336 10.424V17.041H109.911V5.32405H113.336V6.56205L113.454 6.38605C114.062 5.48705 115.17 4.99205 116.576 4.99205C117.902 4.99205 118.956 5.52305 119.625 6.52805L119.678 6.60605L119.733 6.52905V6.53005ZM136.432 14.14C134.707 14.14 133.548 12.951 133.548 11.183C133.548 9.41505 134.707 8.22805 136.432 8.22805C138.158 8.22805 139.317 9.41505 139.317 11.183C139.317 12.951 138.158 14.139 136.432 14.139V14.14ZM137.144 4.99305C135.653 4.99305 134.482 5.47305 133.662 6.41605L133.548 6.54805V5.32405H130.124V21.78H133.548V15.82L133.662 15.951C134.482 16.895 135.654 17.374 137.144 17.374C140.282 17.374 142.742 14.654 142.742 11.184C142.742 7.71305 140.282 4.99405 137.144 4.99405V4.99305Z" fill="black"/>
</svg>
