<svg width="201" height="19" viewBox="0 0 201 19" fill="none" xmlns="http://www.w3.org/2000/svg">
<path d="M1.139 18C0.938996 18 0.839996 17.9 0.839996 17.701V1.41696C0.839996 1.21696 0.939996 1.11796 1.139 1.11796H6.751C9.557 1.11796 11.681 1.86196 13.122 3.34896C14.563 4.83596 15.284 6.90596 15.284 9.55896C15.284 12.196 14.564 14.266 13.122 15.769C11.681 17.256 9.557 18 6.751 18H1.139ZM6.406 4.03896H3.945V15.079H6.406C8.276 15.079 9.687 14.604 10.638 13.653C11.588 12.687 12.064 11.323 12.064 9.55896C12.064 7.77996 11.589 6.41596 10.638 5.46496C9.688 4.51496 8.277 4.03896 6.406 4.03896V4.03896ZM23.741 18.23C22.468 18.23 21.356 17.97 20.406 17.448C19.4874 16.9284 18.7309 16.164 18.221 15.24C17.699 14.305 17.439 13.239 17.439 12.043C17.439 10.832 17.699 9.76596 18.221 8.84596C18.7273 7.9254 19.4847 7.16765 20.405 6.66096C21.356 6.12396 22.468 5.85596 23.74 5.85596C25.013 5.85596 26.117 6.12396 27.053 6.66096C27.9831 7.16243 28.7492 7.92094 29.26 8.84596C29.782 9.76596 30.042 10.832 30.042 12.043C30.042 13.239 29.782 14.305 29.26 15.24C28.7459 16.1686 27.9807 16.9338 27.052 17.448C26.117 17.969 25.013 18.23 23.741 18.23ZM23.741 15.516C24.691 15.516 25.465 15.194 26.064 14.55C26.662 13.906 26.96 13.07 26.96 12.043C26.96 11.016 26.661 10.18 26.064 9.53596C25.465 8.89196 24.691 8.56996 23.741 8.56996C22.79 8.56996 22.015 8.89196 21.418 9.53596C20.82 10.18 20.52 11.016 20.52 12.043C20.52 13.07 20.82 13.906 21.418 14.55C22.016 15.194 22.79 15.516 23.741 15.516ZM32.78 18C32.58 18 32.481 17.9 32.481 17.701V6.38496C32.481 6.18496 32.581 6.08596 32.78 6.08596H34.942C35.157 6.08596 35.264 6.18596 35.264 6.38496L35.333 7.87996C35.7117 7.25447 36.2627 6.75139 36.92 6.43096C37.5519 6.10066 38.254 5.92712 38.967 5.92496C39.274 5.92496 39.542 5.94796 39.772 5.99396C39.941 6.03996 40.025 6.14696 40.025 6.31596V8.68496C40.025 8.88496 39.918 8.96896 39.703 8.93796C39.55 8.92296 39.381 8.90796 39.197 8.89196C38.9994 8.85932 38.7993 8.84392 38.599 8.84596C38.062 8.84596 37.556 8.96896 37.081 9.21396C36.606 9.44396 36.215 9.78096 35.908 10.226C35.617 10.671 35.471 11.207 35.471 11.836V17.701C35.471 17.901 35.371 18 35.172 18H32.78ZM46.7 18.23C45.566 18.23 44.577 17.97 43.734 17.448C42.906 16.927 42.262 16.198 41.802 15.263C41.357 14.328 41.135 13.254 41.135 12.043C41.135 10.816 41.357 9.74296 41.802 8.82296C42.262 7.88796 42.906 7.15896 43.734 6.63796C44.577 6.11696 45.566 5.85596 46.701 5.85596C47.529 5.85596 48.272 6.02496 48.931 6.36196C49.5878 6.66905 50.1575 7.13554 50.588 7.71896L50.657 6.38496C50.657 6.18496 50.764 6.08596 50.979 6.08596H53.141C53.341 6.08596 53.44 6.18596 53.44 6.38496V17.701C53.44 17.901 53.34 18 53.14 18H50.98C50.765 18 50.658 17.9 50.658 17.701L50.588 16.367C50.1553 16.9533 49.5876 17.4267 48.933 17.747C48.273 18.069 47.53 18.23 46.702 18.23H46.7ZM47.437 15.516C48.387 15.516 49.162 15.194 49.76 14.55C50.358 13.906 50.657 13.07 50.657 12.043C50.657 11.016 50.357 10.18 49.76 9.53596C49.162 8.89196 48.387 8.56996 47.437 8.56996C46.487 8.56996 45.712 8.89196 45.114 9.53596C44.516 10.18 44.217 11.016 44.217 12.043C44.217 13.07 44.516 13.906 45.114 14.55C45.712 15.194 46.486 15.516 47.437 15.516ZM61.895 18.23C60.653 18.23 59.58 17.97 58.675 17.448C57.7832 16.924 57.0576 16.1585 56.582 15.24C56.107 14.305 55.869 13.239 55.869 12.043C55.869 10.832 56.107 9.76596 56.582 8.84596C57.0533 7.9303 57.7804 7.17123 58.675 6.66096C59.58 6.12396 60.653 5.85596 61.895 5.85596C63.122 5.85596 64.157 6.13996 65 6.70696C65.859 7.27396 66.503 8.07196 66.932 9.09896C67.377 10.111 67.576 11.299 67.53 12.664C67.515 12.864 67.407 12.963 67.208 12.963H59.043C59.181 13.776 59.496 14.42 59.986 14.895C60.476 15.355 61.121 15.585 61.918 15.585C63.114 15.585 63.988 15.133 64.54 14.228C64.617 14.09 64.747 14.044 64.931 14.09L66.978 14.803C67.178 14.88 67.231 15.01 67.139 15.194C66.618 16.237 65.889 17.004 64.954 17.494C64.0101 17.9864 62.9596 18.2392 61.895 18.23V18.23ZM61.872 8.50096C61.167 8.50096 60.569 8.70096 60.078 9.09896C59.603 9.48196 59.273 10.027 59.089 10.732H64.333C64.195 10.027 63.911 9.48196 63.483 9.09896C63.053 8.69996 62.516 8.50096 61.873 8.50096H61.872ZM70.042 18C69.843 18 69.744 17.9 69.744 17.701V6.38496C69.744 6.18496 69.844 6.08596 70.043 6.08596H72.205C72.419 6.08596 72.527 6.18596 72.527 6.38496L72.596 7.81096C72.9919 7.18285 73.5582 6.6803 74.229 6.36196C74.8935 6.0308 75.6255 5.85763 76.368 5.85596C77.272 5.85596 78.039 6.04796 78.668 6.43096C79.3113 6.79821 79.8193 7.36269 80.117 8.04096C80.5279 7.33775 81.1355 6.7701 81.865 6.40796C82.5851 6.0437 83.381 5.85458 84.188 5.85596C85.491 5.85596 86.511 6.24696 87.247 7.02896C87.998 7.81096 88.374 8.88396 88.374 10.249V17.701C88.374 17.901 88.274 18 88.074 18H85.683C85.483 18 85.383 17.9 85.383 17.701V11.468C85.383 9.53596 84.678 8.56996 83.268 8.56996C82.562 8.56996 81.934 8.84596 81.382 9.39796C80.83 9.94996 80.554 10.793 80.554 11.928V17.701C80.554 17.901 80.454 18 80.254 18H77.863C77.663 18 77.563 17.9 77.563 17.701V11.468C77.563 9.53596 76.858 8.56996 75.448 8.56996C74.742 8.56996 74.114 8.84596 73.562 9.39796C73.01 9.94996 72.734 10.793 72.734 11.928V17.701C72.734 17.901 72.634 18 72.434 18H70.043H70.042ZM97.031 18.23C95.758 18.23 94.646 17.97 93.695 17.448C92.7769 16.928 92.0209 16.1637 91.511 15.24C90.989 14.305 90.729 13.239 90.729 12.043C90.729 10.832 90.989 9.76596 91.51 8.84596C92.0169 7.92553 92.7746 7.16785 93.695 6.66096C94.646 6.12396 95.758 5.85596 97.031 5.85596C98.303 5.85596 99.407 6.12396 100.342 6.66096C101.273 7.16209 102.039 7.92066 102.55 8.84596C103.072 9.76596 103.332 10.832 103.332 12.043C103.332 13.239 103.072 14.305 102.55 15.24C102.036 16.1684 101.27 16.9336 100.342 17.448C99.407 17.969 98.303 18.23 97.031 18.23ZM97.031 15.516C97.981 15.516 98.755 15.194 99.353 14.55C99.952 13.906 100.25 13.07 100.25 12.043C100.25 11.016 99.951 10.18 99.353 9.53596C98.756 8.89196 97.981 8.56996 97.031 8.56996C96.08 8.56996 95.305 8.89196 94.707 9.53596C94.11 10.18 93.811 11.016 93.811 12.043C93.811 13.07 94.109 13.906 94.707 14.55C95.306 15.194 96.08 15.516 97.031 15.516ZM106.07 18C105.871 18 105.771 17.9 105.771 17.701V6.38496C105.771 6.18496 105.871 6.08596 106.07 6.08596H108.232C108.447 6.08596 108.554 6.18596 108.554 6.38496L108.623 7.74196C109.051 7.12714 109.64 6.6418 110.325 6.33896C111.009 6.01831 111.755 5.85335 112.51 5.85596C113.89 5.85596 114.956 6.24696 115.707 7.02896C116.474 7.81096 116.857 8.88396 116.857 10.249V17.701C116.857 17.901 116.757 18 116.558 18H114.166C113.967 18 113.867 17.9 113.867 17.701V11.468C113.867 10.471 113.683 9.74296 113.315 9.28296C112.947 8.80796 112.372 8.56996 111.59 8.56996C111.115 8.56996 110.655 8.69296 110.21 8.93796C109.781 9.18296 109.428 9.55096 109.152 10.042C108.891 10.532 108.761 11.162 108.761 11.928V17.701C108.761 17.901 108.661 18 108.462 18H106.07ZM130.289 18.23C129.047 18.23 127.973 17.97 127.069 17.448C126.177 16.9245 125.451 16.1589 124.976 15.24C124.5 14.305 124.263 13.239 124.263 12.043C124.263 10.832 124.5 9.76596 124.976 8.84596C125.447 7.9303 126.174 7.17123 127.069 6.66096C127.973 6.12396 129.047 5.85596 130.289 5.85596C131.515 5.85596 132.55 6.13996 133.394 6.70696C134.252 7.27396 134.896 8.07196 135.326 9.09896C135.77 10.111 135.97 11.299 135.924 12.664C135.908 12.864 135.801 12.963 135.602 12.963H127.437C127.575 13.776 127.889 14.42 128.38 14.895C128.87 15.355 129.514 15.585 130.312 15.585C131.508 15.585 132.382 15.133 132.934 14.228C133.01 14.09 133.141 14.044 133.325 14.09L135.372 14.803C135.571 14.88 135.625 15.01 135.533 15.194C135.011 16.237 134.283 17.004 133.348 17.494C132.404 17.9863 131.354 18.2391 130.289 18.23ZM130.266 8.50096C129.56 8.50096 128.962 8.70096 128.472 9.09896C127.996 9.48196 127.667 10.027 127.483 10.732H132.727C132.589 10.027 132.305 9.48196 131.876 9.09896C131.446 8.69996 130.91 8.50096 130.266 8.50096V8.50096ZM143.013 18.23C141.879 18.23 140.89 17.97 140.046 17.448C139.218 16.927 138.574 16.198 138.114 15.263C137.67 14.328 137.447 13.254 137.447 12.043C137.447 10.816 137.67 9.74296 138.114 8.82296C138.574 7.88796 139.218 7.15896 140.046 6.63796C140.89 6.11696 141.879 5.85596 143.013 5.85596C143.795 5.85596 144.508 6.00896 145.152 6.31596C145.776 6.59195 146.327 7.00927 146.762 7.53496V1.04896C146.762 0.848959 146.862 0.749959 147.061 0.749959H149.453C149.653 0.749959 149.752 0.849959 149.752 1.04896V17.701C149.752 17.901 149.653 18 149.453 18H147.291C147.077 18 146.969 17.9 146.969 17.701L146.9 16.367C146.467 16.9534 145.899 17.4267 145.244 17.747C144.585 18.069 143.841 18.23 143.013 18.23V18.23ZM143.749 15.516C144.7 15.516 145.474 15.194 146.072 14.55C146.67 13.906 146.969 13.07 146.969 12.043C146.969 11.016 146.67 10.18 146.072 9.53596C145.474 8.89196 144.7 8.56996 143.749 8.56996C142.799 8.56996 142.024 8.89196 141.426 9.53596C140.828 10.18 140.529 11.016 140.529 12.043C140.529 13.07 140.828 13.906 141.426 14.55C142.024 15.194 142.799 15.516 143.749 15.516ZM154.367 3.96996C153.876 3.96996 153.462 3.81696 153.125 3.50996C152.787 3.20296 152.619 2.80496 152.619 2.31396C152.619 1.82396 152.787 1.42396 153.125 1.11796C153.462 0.810959 153.876 0.657959 154.367 0.657959C154.857 0.657959 155.271 0.810959 155.609 1.11796C155.946 1.42496 156.115 1.82296 156.115 2.31396C156.115 2.80396 155.946 3.20396 155.609 3.50996C155.271 3.81696 154.857 3.96996 154.367 3.96996V3.96996ZM153.171 18C152.971 18 152.872 17.9 152.872 17.701V6.38496C152.872 6.18496 152.971 6.08596 153.171 6.08596H155.563C155.762 6.08596 155.862 6.18596 155.862 6.38496V17.701C155.862 17.901 155.762 18 155.563 18H153.171ZM163.627 18.23C162.339 18.23 161.35 17.831 160.66 17.034C159.97 16.221 159.625 15.01 159.625 13.4V8.75396H157.877C157.678 8.75396 157.578 8.65396 157.578 8.45496V6.38496C157.578 6.18496 157.678 6.08596 157.877 6.08596H159.625V2.88896C159.625 2.68896 159.725 2.58996 159.924 2.58996H162.316C162.515 2.58996 162.615 2.68996 162.615 2.88896V6.08596H165.444C165.643 6.08596 165.743 6.18596 165.743 6.38496V8.45496C165.743 8.65496 165.643 8.75396 165.444 8.75396H162.615V13.584C162.615 14.872 163.06 15.516 163.949 15.516C164.332 15.516 164.631 15.324 164.846 14.941C164.953 14.757 165.091 14.711 165.26 14.803L167.054 15.608C167.253 15.7 167.284 15.861 167.146 16.091C166.717 16.873 166.188 17.425 165.559 17.747C164.965 18.0643 164.301 18.2302 163.627 18.23V18.23ZM170.314 3.96996C169.823 3.96996 169.409 3.81696 169.072 3.50996C168.735 3.20296 168.566 2.80496 168.566 2.31396C168.566 1.82396 168.735 1.42396 169.072 1.11796C169.409 0.810959 169.823 0.657959 170.314 0.657959C170.805 0.657959 171.219 0.810959 171.556 1.11796C171.893 1.42496 172.062 1.82296 172.062 2.31396C172.062 2.80396 171.893 3.20396 171.556 3.50996C171.219 3.81696 170.805 3.96996 170.314 3.96996ZM169.118 18C168.919 18 168.819 17.9 168.819 17.701V6.38496C168.819 6.18496 168.919 6.08596 169.118 6.08596H171.51C171.709 6.08596 171.809 6.18596 171.809 6.38496V17.701C171.809 17.901 171.709 18 171.51 18H169.118ZM180.54 18.23C179.268 18.23 178.156 17.97 177.205 17.448C176.287 16.9278 175.531 16.1635 175.02 15.24C174.499 14.305 174.238 13.239 174.238 12.043C174.238 10.832 174.499 9.76596 175.02 8.84596C175.527 7.92553 176.285 7.16785 177.205 6.66096C178.156 6.12396 179.268 5.85596 180.54 5.85596C181.813 5.85596 182.917 6.12396 183.852 6.66096C184.783 7.16209 185.549 7.92066 186.06 8.84596C186.582 9.76596 186.842 10.832 186.842 12.043C186.842 13.239 186.582 14.305 186.06 15.24C185.546 16.1684 184.78 16.9336 183.852 17.448C182.917 17.969 181.813 18.23 180.54 18.23ZM180.54 15.516C181.491 15.516 182.265 15.194 182.863 14.55C183.461 13.906 183.76 13.07 183.76 12.043C183.76 11.016 183.461 10.18 182.863 9.53596C182.265 8.89196 181.491 8.56996 180.54 8.56996C179.59 8.56996 178.815 8.89196 178.217 9.53596C177.619 10.18 177.32 11.016 177.32 12.043C177.32 13.07 177.619 13.906 178.217 14.55C178.815 15.194 179.59 15.516 180.54 15.516ZM189.58 18C189.38 18 189.281 17.9 189.281 17.701V6.38496C189.281 6.18496 189.38 6.08596 189.58 6.08596H191.742C191.956 6.08596 192.064 6.18596 192.064 6.38496L192.133 7.74196C192.561 7.1269 193.15 6.64149 193.835 6.33896C194.519 6.01831 195.265 5.85335 196.02 5.85596C197.4 5.85596 198.465 6.24696 199.217 7.02896C199.983 7.81096 200.367 8.88396 200.367 10.249V17.701C200.367 17.901 200.267 18 200.068 18H197.676C197.476 18 197.377 17.9 197.377 17.701V11.468C197.377 10.471 197.193 9.74296 196.825 9.28296C196.457 8.80796 195.882 8.56996 195.1 8.56996C194.616 8.57218 194.141 8.69891 193.72 8.93796C193.29 9.18296 192.938 9.55096 192.662 10.042C192.401 10.532 192.271 11.162 192.271 11.928V17.701C192.271 17.901 192.171 18 191.972 18H189.58V18Z" fill="black"/>
</svg>
