<?xml version="1.0" encoding="utf-8"?>
<!-- Generator: Adobe Illustrator 25.2.3, SVG Export Plug-In . SVG Version: 6.00 Build 0)  -->
<svg version="1.1" id="레이어_1" xmlns="http://www.w3.org/2000/svg" xmlns:xlink="http://www.w3.org/1999/xlink" x="0px"
	 y="0px" viewBox="0 0 174.96 23.26" style="enable-background:new 0 0 174.96 23.26;" xml:space="preserve">
<style type="text/css">
	.st0{fill:#535353;}
</style>
<g>
	<g>
		<g>
			<path class="st0" d="M22.71,7.35l-5.94,15.14h5.05l0.72-2h5.69l0.72,2h5.05L28.06,7.35H22.71z M23.69,16.85l1.69-4.73l1.69,4.73
				H23.69z"/>
			<polygon class="st0" points="55,16.74 61.9,16.74 61.9,13.1 55,13.1 55,11.06 61.98,11.06 61.98,7.35 50.18,7.35 50.18,22.49 
				62.13,22.49 62.13,18.78 55,18.78 			"/>
			<polygon class="st0" points="40.01,17.31 36.44,7.35 31.4,7.35 37.33,22.49 42.68,22.49 48.62,7.35 43.57,7.35 			"/>
			<polygon class="st0" points="10.32,15.46 4.68,7.35 0,7.35 0,22.49 4.9,22.49 4.9,14.39 10.54,22.49 15.22,22.49 15.22,7.35 
				10.32,7.35 			"/>
			<path class="st0" d="M75.07,17.3l0.46-0.19c1.76-0.74,2.65-2.33,2.65-4.35c0-1.91-0.7-3.33-2.07-4.21
				c-1.28-0.82-2.94-1.2-5.22-1.2H64.5v15.14h4.75v-4.23h1.71l2.89,4.23h5.05L75.07,17.3z M71.77,14.4h-2.6v-3.19h2.6
				c0.88,0,1.6,0.71,1.6,1.6S72.66,14.4,71.77,14.4z"/>
		</g>
	</g>
	<g>
		<g>
			<path class="st0" d="M111.82,7.51h-3.69c-0.25,0-0.47,0.13-0.56,0.38l-3.16,9.46l-3.36-9.45c-0.08-0.23-0.29-0.38-0.54-0.38
				h-3.53c-0.24,0-0.46,0.15-0.54,0.38l-3.32,9.45l-3.19-9.46c-0.09-0.25-0.31-0.38-0.56-0.38h-3.69c-0.34,0-0.5,0.19-0.38,0.53
				l5.32,14.43c0.09,0.25,0.31,0.38,0.56,0.38h3.6c0.25,0,0.47-0.13,0.56-0.38l3.38-8.89l3.38,8.89c0.09,0.25,0.31,0.38,0.56,0.38
				h3.63c0.25,0,0.47-0.13,0.56-0.38l5.32-14.43C112.33,7.7,112.17,7.51,111.82,7.51z"/>
		</g>
		<g>
			<path class="st0" d="M129.75,13.78v8.61c0,0.28-0.19,0.47-0.47,0.47h-3.76c-0.28,0-0.47-0.19-0.47-0.47v-7.67
				c0-2.47-1.38-3.19-2.63-3.19c-2.1,0-2.97,2.07-2.97,2.82v8.05c0,0.28-0.19,0.47-0.47,0.47h-3.76c-0.28,0-0.47-0.19-0.47-0.47
				V0.47c0-0.28,0.19-0.47,0.47-0.47h3.76c0.28,0,0.47,0.19,0.47,0.47v9.46c0.97-1.6,2.54-2.76,4.73-2.76
				C127.28,7.17,129.75,9.67,129.75,13.78z"/>
			<path class="st0" d="M148.66,7.98v14.4c0,0.28-0.19,0.47-0.47,0.47h-3.41c-0.28,0-0.44-0.19-0.47-0.47l-0.09-1.13
				c-1.06,1.19-2.5,2-4.38,2c-4.26,0-7.39-3.57-7.39-8.05s3.13-8.05,7.39-8.05c1.82,0,3.29,0.85,4.38,2.1l0.09-1.28
				c0.03-0.28,0.19-0.47,0.47-0.47h3.41C148.48,7.51,148.66,7.7,148.66,7.98z M144.08,15.18c0-2.09-1.51-3.87-3.54-3.87
				c-2.06,0-3.58,1.68-3.58,3.87c0,2.22,1.51,3.9,3.58,3.9C142.57,19.08,144.08,17.28,144.08,15.18z"/>
			<path class="st0" d="M152.84,0h3.76c0.28,0,0.47,0.19,0.47,0.47v21.92c0,0.28-0.19,0.47-0.47,0.47h-3.76
				c-0.28,0-0.47-0.19-0.47-0.47V0.47C152.37,0.19,152.56,0,152.84,0z"/>
			<path class="st0" d="M173.83,16.88h-9.3c0.44,1.72,1.82,2.63,3.94,2.63c1,0,1.88-0.22,2.97-0.91c0.28-0.19,0.47-0.16,0.69,0.06
				l1.63,1.57c0.19,0.22,0.19,0.44-0.06,0.69c-1.47,1.47-3.48,2.35-5.7,2.35c-4.82,0-8.14-3.54-8.14-8.05c0-4.51,3.32-8.05,7.8-8.05
				c4.45,0,7.3,3.54,7.3,7.76C174.96,16.22,174.8,16.88,173.83,16.88z M164.47,13.9h6.32c-0.28-1.88-1.57-2.79-3.1-2.79
				C166.13,11.11,164.81,12.02,164.47,13.9z"/>
		</g>
	</g>
</g>
</svg>
