<?xml version="1.0" encoding="utf-8"?>
<!-- Generator: Adobe Illustrator 25.2.3, SVG Export Plug-In . SVG Version: 6.00 Build 0)  -->
<svg version="1.1" id="레이어_1" xmlns="http://www.w3.org/2000/svg" xmlns:xlink="http://www.w3.org/1999/xlink" x="0px"
	 y="0px" viewBox="0 0 131 17.42" style="enable-background:new 0 0 131 17.42;" xml:space="preserve">
<style type="text/css">
	.st0{fill:#999999;}
</style>
<g>
	<g>
		<g>
			<path class="st0" d="M17.01,5.5l-4.45,11.34h3.78l0.54-1.5h4.26l0.54,1.5h3.78L21.01,5.5H17.01z M17.74,12.62l1.27-3.54
				l1.27,3.54H17.74z"/>
			<polygon class="st0" points="41.18,12.53 46.35,12.53 46.35,9.81 41.18,9.81 41.18,8.28 46.41,8.28 46.41,5.5 37.57,5.5 
				37.57,16.84 46.52,16.84 46.52,14.06 41.18,14.06 			"/>
			<polygon class="st0" points="29.96,12.96 27.29,5.5 23.51,5.5 27.95,16.84 31.96,16.84 36.4,5.5 32.62,5.5 			"/>
			<polygon class="st0" points="7.72,11.57 3.5,5.5 0,5.5 0,16.84 3.67,16.84 3.67,10.77 7.89,16.84 11.39,16.84 11.39,5.5 
				7.72,5.5 			"/>
			<path class="st0" d="M56.21,12.95l0.34-0.14c1.32-0.55,1.99-1.74,1.99-3.26c0-1.43-0.52-2.49-1.55-3.15
				c-0.96-0.61-2.2-0.9-3.91-0.9h-4.79v11.34h3.56v-3.17h1.28l2.17,3.17h3.78L56.21,12.95z M53.74,10.78H51.8V8.39h1.95
				c0.66,0,1.19,0.53,1.19,1.19S54.4,10.78,53.74,10.78z"/>
		</g>
	</g>
	<g>
		<g>
			<path class="st0" d="M83.73,5.63h-2.77c-0.19,0-0.35,0.09-0.42,0.28l-2.37,7.08l-2.51-7.08c-0.06-0.17-0.22-0.28-0.4-0.28h-2.64
				c-0.18,0-0.34,0.11-0.4,0.28l-2.48,7.08l-2.39-7.08c-0.07-0.19-0.23-0.28-0.42-0.28h-2.77c-0.26,0-0.38,0.14-0.28,0.4l3.99,10.81
				c0.07,0.19,0.23,0.28,0.42,0.28h2.7c0.19,0,0.35-0.09,0.42-0.28l2.53-6.66l2.53,6.66c0.07,0.19,0.23,0.28,0.42,0.28h2.72
				c0.19,0,0.35-0.09,0.42-0.28l3.99-10.81C84.1,5.77,83.99,5.63,83.73,5.63z"/>
		</g>
		<g>
			<path class="st0" d="M97.15,10.31v6.45c0,0.21-0.14,0.35-0.35,0.35h-2.81c-0.21,0-0.35-0.14-0.35-0.35v-5.74
				c0-1.85-1.03-2.39-1.97-2.39c-1.57,0-2.23,1.55-2.23,2.11v6.02c0,0.21-0.14,0.35-0.35,0.35h-2.81c-0.21,0-0.35-0.14-0.35-0.35
				V0.35c0-0.21,0.14-0.35,0.35-0.35h2.81c0.21,0,0.35,0.14,0.35,0.35v7.08c0.73-1.2,1.9-2.06,3.54-2.06
				C95.3,5.37,97.15,7.24,97.15,10.31z"/>
			<path class="st0" d="M111.31,5.98v10.78c0,0.21-0.14,0.35-0.35,0.35h-2.56c-0.21,0-0.33-0.14-0.35-0.35l-0.07-0.84
				c-0.8,0.89-1.88,1.5-3.28,1.5c-3.19,0-5.53-2.67-5.53-6.02s2.34-6.02,5.53-6.02c1.36,0,2.46,0.63,3.28,1.57l0.07-0.96
				c0.02-0.21,0.14-0.35,0.35-0.35h2.56C111.17,5.63,111.31,5.77,111.31,5.98z M107.88,11.37c0-1.57-1.13-2.89-2.65-2.89
				c-1.54,0-2.68,1.25-2.68,2.89c0,1.66,1.13,2.92,2.68,2.92C106.75,14.29,107.88,12.94,107.88,11.37z"/>
			<path class="st0" d="M114.44,0h2.81c0.21,0,0.35,0.14,0.35,0.35v16.41c0,0.21-0.14,0.35-0.35,0.35h-2.81
				c-0.21,0-0.35-0.14-0.35-0.35V0.35C114.09,0.14,114.23,0,114.44,0z"/>
			<path class="st0" d="M130.16,12.64h-6.96c0.33,1.29,1.36,1.97,2.95,1.97c0.75,0,1.41-0.16,2.23-0.68
				c0.21-0.14,0.35-0.12,0.52,0.05l1.22,1.17c0.14,0.16,0.14,0.33-0.05,0.52c-1.1,1.1-2.6,1.76-4.27,1.76c-3.61,0-6.1-2.65-6.1-6.02
				c0-3.38,2.48-6.02,5.84-6.02c3.33,0,5.46,2.65,5.46,5.81C131,12.14,130.88,12.64,130.16,12.64z M123.15,10.41h4.74
				c-0.21-1.41-1.17-2.09-2.32-2.09C124.39,8.32,123.4,9,123.15,10.41z"/>
		</g>
	</g>
</g>
</svg>
