<?xml version="1.0" encoding="utf-8"?><svg width="433" height="277" viewBox="0 0 433 277" xmlns="http://www.w3.org/2000/svg" xmlns:xlink="http://www.w3.org/1999/xlink"><svg width="212" height="58" fill="none" viewBox="-4 -4 212 58" id="img_device_title_01" y="40" xmlns="http://www.w3.org/2000/svg"><path fill="#000" d="M1.432 40c-.186 0-.32-.053-.4-.16-.08-.107-.08-.253 0-.44l11.72-28.36c.107-.267.307-.4.6-.4h3.72c.294 0 .494.133.6.4l11.72 28.36c.08.187.08.333 0 .44-.08.107-.213.16-.4.16h-5.04c-.293 0-.493-.133-.6-.4l-2.08-5.48h-12.2l-2.08 5.48c-.106.267-.306.4-.6.4h-4.96zm9.52-10.88h8.4L15.152 18l-4.2 11.12zM33.99 40c-.346 0-.52-.173-.52-.52V11.16c0-.347.174-.52.52-.52h4.36c.347 0 .52.173.52.52v28.32c0 .347-.173.52-.52.52h-4.36zm20.587 0c-.347 0-.52-.173-.52-.52V11.16c0-.347.173-.52.52-.52h9.76c4.88 0 8.573 1.293 11.08 3.88 2.506 2.587 3.76 6.187 3.76 10.8 0 4.587-1.254 8.187-3.76 10.8-2.507 2.587-6.2 3.88-11.08 3.88h-9.76zm9.16-24.28h-4.28v19.2h4.28c3.253 0 5.706-.827 7.36-2.48 1.653-1.68 2.48-4.053 2.48-7.12 0-3.093-.827-5.467-2.48-7.12-1.654-1.653-4.107-2.48-7.36-2.48zM93.401 40.4c-2.16 0-4.026-.453-5.6-1.36a9.526 9.526 0 0 1-3.64-3.84c-.826-1.627-1.24-3.48-1.24-5.56 0-2.107.414-3.96 1.24-5.56a9.264 9.264 0 0 1 3.64-3.8c1.574-.933 3.44-1.4 5.6-1.4 2.134 0 3.934.493 5.4 1.48 1.494.987 2.614 2.373 3.36 4.16.774 1.76 1.12 3.827 1.04 6.2-.026.347-.213.52-.56.52h-14.2c.24 1.413.787 2.533 1.64 3.36.854.8 1.974 1.2 3.36 1.2 2.08 0 3.6-.787 4.56-2.36.134-.24.36-.32.68-.24l3.56 1.24c.347.133.44.36.28.68-.906 1.813-2.173 3.147-3.8 4-1.626.853-3.4 1.28-5.32 1.28zm-.04-16.92c-1.226 0-2.266.347-3.12 1.04-.826.667-1.4 1.613-1.72 2.84h9.12c-.24-1.227-.733-2.173-1.48-2.84-.746-.693-1.68-1.04-2.8-1.04zM113.636 40c-.266 0-.466-.133-.6-.4l-8.84-19.72c-.186-.4-.053-.6.4-.6h4.96c.294 0 .494.133.6.4l4.96 12.6 4.96-12.6c.107-.267.307-.4.6-.4h4.64c.454 0 .587.2.4.6l-8.84 19.72c-.133.267-.333.4-.6.4h-2.64zm18.282-24.4c-.854 0-1.574-.267-2.16-.8-.587-.533-.88-1.227-.88-2.08s.293-1.547.88-2.08c.586-.533 1.306-.8 2.16-.8.853 0 1.573.267 2.16.8.586.533.88 1.227.88 2.08s-.294 1.547-.88 2.08c-.587.533-1.307.8-2.16.8zm-2.08 24.4c-.347 0-.52-.173-.52-.52V19.8c0-.347.173-.52.52-.52h4.16c.346 0 .52.173.52.52v19.68c0 .347-.174.52-.52.52h-4.16zm19.545.4c-2.187 0-4.08-.453-5.68-1.36-1.574-.907-2.8-2.173-3.68-3.8-.854-1.627-1.28-3.493-1.28-5.6 0-2.133.426-4 1.28-5.6.88-1.627 2.106-2.893 3.68-3.8 1.6-.907 3.48-1.36 5.64-1.36 2.32 0 4.28.493 5.88 1.48 1.6.96 2.773 2.467 3.52 4.52.133.347.013.573-.36.68l-3.44 1c-.294.08-.52-.027-.68-.32-.907-1.76-2.44-2.64-4.6-2.64-1.254 0-2.294.28-3.12.84a4.803 4.803 0 0 0-1.84 2.2c-.4.907-.6 1.907-.6 3s.2 2.107.6 3.04c.4.907 1.013 1.64 1.84 2.2.826.533 1.866.8 3.12.8 2.213 0 3.76-.92 4.64-2.76.16-.293.386-.4.68-.32l3.8.92c.346.08.453.293.32.64-.827 2.133-2.08 3.707-3.76 4.72-1.68 1.013-3.667 1.52-5.96 1.52zm22.965 0c-2.16 0-4.027-.453-5.6-1.36a9.513 9.513 0 0 1-3.64-3.84c-.827-1.627-1.24-3.48-1.24-5.56 0-2.107.413-3.96 1.24-5.56a9.251 9.251 0 0 1 3.64-3.8c1.573-.933 3.44-1.4 5.6-1.4 2.133 0 3.933.493 5.4 1.48 1.493.987 2.613 2.373 3.36 4.16.773 1.76 1.12 3.827 1.04 6.2-.027.347-.214.52-.56.52h-14.2c.24 1.413.786 2.533 1.64 3.36.853.8 1.973 1.2 3.36 1.2 2.08 0 3.6-.787 4.56-2.36.133-.24.36-.32.68-.24l3.56 1.24c.346.133.44.36.28.68-.907 1.813-2.174 3.147-3.8 4-1.627.853-3.4 1.28-5.32 1.28zm-.04-16.92c-1.227 0-2.267.347-3.12 1.04-.827.667-1.4 1.613-1.72 2.84h9.12c-.24-1.227-.734-2.173-1.48-2.84-.747-.693-1.68-1.04-2.8-1.04zm21.129 16.92c-2.266 0-4.173-.467-5.72-1.4-1.52-.96-2.613-2.333-3.28-4.12-.133-.347-.013-.56.36-.64l3.64-1c.294-.08.507.027.64.32.48.827 1.067 1.413 1.76 1.76.72.32 1.52.48 2.4.48.88 0 1.6-.107 2.16-.32.587-.213.88-.613.88-1.2 0-.453-.24-.813-.72-1.08-.48-.293-1.266-.6-2.36-.92l-1-.28c-2.48-.693-4.253-1.64-5.32-2.84-1.04-1.2-1.56-2.6-1.56-4.2 0-1.173.334-2.213 1-3.12.667-.933 1.587-1.653 2.76-2.16 1.2-.533 2.574-.8 4.12-.8 2 0 3.694.427 5.08 1.28 1.387.853 2.4 2.16 3.04 3.92.134.347.027.56-.32.64l-3.64 1.16c-.293.107-.52.013-.68-.28a4.041 4.041 0 0 0-1.4-1.52c-.56-.4-1.28-.6-2.16-.6-.666 0-1.24.12-1.72.36-.48.213-.72.587-.72 1.12 0 .48.24.88.72 1.2.507.293 1.334.587 2.48.88l.96.24c2.534.64 4.294 1.52 5.28 2.64 1.014 1.093 1.52 2.507 1.52 4.24 0 1.253-.36 2.36-1.08 3.32-.693.933-1.653 1.653-2.88 2.16-1.226.507-2.64.76-4.24.76z"/></svg><svg width="282" height="40" fill="none" viewBox="-4 -4 282 40" id="img_device_title_02" xmlns="http://www.w3.org/2000/svg"><path fill="#000" d="M11.856 31c-.32 0-.52-.133-.6-.4L1.016 2.24c-.134-.4.013-.6.44-.6h5.08c.293 0 .48.147.56.44l6.44 19.8 6.52-19.8c.08-.293.266-.44.56-.44h3.6c.293 0 .48.147.56.44l6.52 19.84 6.48-19.84c.08-.293.266-.44.56-.44h4.96c.426 0 .573.2.44.6L33.496 30.6c-.08.267-.28.4-.6.4h-3.68c-.294 0-.48-.147-.56-.44l-6.28-19.12-6.28 19.12c-.08.293-.267.44-.56.44h-3.68zM49.519 6.6c-.853 0-1.573-.267-2.16-.8-.586-.533-.88-1.227-.88-2.08s.294-1.547.88-2.08c.587-.533 1.307-.8 2.16-.8.854 0 1.574.267 2.16.8.587.533.88 1.227.88 2.08s-.293 1.547-.88 2.08c-.586.533-1.306.8-2.16.8zM47.44 31c-.346 0-.52-.173-.52-.52V10.8c0-.347.174-.52.52-.52h4.16c.347 0 .52.173.52.52v19.68c0 .347-.173.52-.52.52h-4.16zm18.185.4c-2.24 0-3.96-.693-5.16-2.08-1.2-1.413-1.8-3.52-1.8-6.32v-8.08h-3.04c-.346 0-.52-.173-.52-.52v-3.6c0-.347.174-.52.52-.52h3.04V4.72c0-.347.174-.52.52-.52h4.16c.347 0 .52.173.52.52v5.56h4.92c.347 0 .52.173.52.52v3.6c0 .347-.173.52-.52.52h-4.92v8.4c0 2.24.774 3.36 2.32 3.36.667 0 1.187-.333 1.56-1 .187-.32.427-.4.72-.24l3.12 1.4c.347.16.4.44.16.84-.746 1.36-1.666 2.32-2.76 2.88a7.128 7.128 0 0 1-3.36.84zm9.55-.4c-.347 0-.52-.173-.52-.52V1.52c0-.347.173-.52.52-.52h4.16c.346 0 .52.173.52.52v11.32a7.068 7.068 0 0 1 2.88-2.2 9.083 9.083 0 0 1 3.64-.76c2.4 0 4.253.68 5.56 2.04 1.333 1.36 2 3.227 2 5.6v12.96c0 .347-.174.52-.52.52h-4.16c-.347 0-.52-.173-.52-.52V19.64c0-1.733-.32-3-.96-3.8-.64-.827-1.64-1.24-3-1.24-.827 0-1.627.213-2.4.64-.747.427-1.36 1.067-1.84 1.92-.454.853-.68 1.947-.68 3.28v10.04c0 .347-.174.52-.52.52h-4.16zm33.839 0c-.347 0-.52-.173-.52-.52V2.16c0-.347.173-.52.52-.52h8.88c3.867 0 6.773.893 8.72 2.68 1.947 1.787 2.92 4.307 2.92 7.56 0 3.227-.973 5.747-2.92 7.56-1.947 1.787-4.853 2.68-8.72 2.68h-4v8.36c0 .347-.173.52-.52.52h-4.36zm8.68-24.36h-3.8v10.48h3.8c2 0 3.533-.427 4.6-1.28 1.093-.853 1.64-2.213 1.64-4.08 0-1.733-.547-3.013-1.64-3.84-1.067-.853-2.6-1.28-4.6-1.28zm24.034 24.76c-1.973 0-3.693-.453-5.16-1.36-1.44-.907-2.56-2.173-3.36-3.8-.773-1.627-1.16-3.493-1.16-5.6 0-2.133.387-4 1.16-5.6.8-1.627 1.92-2.893 3.36-3.8 1.467-.907 3.187-1.36 5.16-1.36 1.44 0 2.734.293 3.88.88a7.55 7.55 0 0 1 2.88 2.36l.12-2.32c0-.347.187-.52.56-.52h3.76c.347 0 .52.173.52.52v19.68c0 .347-.173.52-.52.52h-3.76c-.373 0-.56-.173-.56-.52l-.12-2.32a7.903 7.903 0 0 1-2.88 2.4c-1.146.56-2.44.84-3.88.84zm1.28-4.72c1.654 0 3-.56 4.04-1.68 1.04-1.12 1.56-2.573 1.56-4.36 0-1.787-.52-3.24-1.56-4.36s-2.386-1.68-4.04-1.68c-1.653 0-3 .56-4.04 1.68-1.04 1.12-1.56 2.573-1.56 4.36 0 1.787.52 3.24 1.56 4.36s2.387 1.68 4.04 1.68zM159.392 31c-.346 0-.52-.173-.52-.52V10.8c0-.347.174-.52.52-.52h3.76c.374 0 .56.173.56.52l.12 2.6c.694-1.12 1.614-1.96 2.76-2.52 1.147-.587 2.334-.88 3.56-.88.534 0 1 .04 1.4.12.294.08.44.267.44.56v4.12c0 .347-.186.493-.56.44-.266-.027-.56-.053-.88-.08a5.92 5.92 0 0 0-1.04-.08c-.933 0-1.813.213-2.64.64-.826.4-1.506.987-2.04 1.76-.506.773-.76 1.707-.76 2.8v10.2c0 .347-.173.52-.52.52h-4.16zm25.412.4c-2.24 0-3.96-.693-5.16-2.08-1.2-1.413-1.8-3.52-1.8-6.32v-8.08h-3.04c-.347 0-.52-.173-.52-.52v-3.6c0-.347.173-.52.52-.52h3.04V4.72c0-.347.173-.52.52-.52h4.16c.347 0 .52.173.52.52v5.56h4.92c.347 0 .52.173.52.52v3.6c0 .347-.173.52-.52.52h-4.92v8.4c0 2.24.773 3.36 2.32 3.36.667 0 1.187-.333 1.56-1 .187-.32.427-.4.72-.24l3.12 1.4c.347.16.4.44.16.84-.747 1.36-1.667 2.32-2.76 2.88a7.134 7.134 0 0 1-3.36.84zm9.549-.4c-.346 0-.52-.173-.52-.52V10.8c0-.347.174-.52.52-.52h3.76c.374 0 .56.173.56.52l.12 2.36a7.108 7.108 0 0 1 2.96-2.44 8.88 8.88 0 0 1 3.8-.84c2.4 0 4.254.68 5.56 2.04 1.334 1.36 2 3.227 2 5.6v12.96c0 .347-.173.52-.52.52h-4.16c-.346 0-.52-.173-.52-.52V19.64c0-1.733-.32-3-.96-3.8-.64-.827-1.64-1.24-3-1.24-.826 0-1.626.213-2.4.64-.746.427-1.36 1.067-1.84 1.92-.453.853-.68 1.947-.68 3.28v10.04c0 .347-.173.52-.52.52h-4.16zm33.331.4c-2.16 0-4.027-.453-5.6-1.36a9.513 9.513 0 0 1-3.64-3.84c-.827-1.627-1.24-3.48-1.24-5.56 0-2.107.413-3.96 1.24-5.56a9.251 9.251 0 0 1 3.64-3.8c1.573-.933 3.44-1.4 5.6-1.4 2.133 0 3.933.493 5.4 1.48 1.493.987 2.613 2.373 3.36 4.16.773 1.76 1.12 3.827 1.04 6.2-.027.347-.214.52-.56.52h-14.2c.24 1.413.786 2.533 1.64 3.36.853.8 1.973 1.2 3.36 1.2 2.08 0 3.6-.787 4.56-2.36.133-.24.36-.32.68-.24l3.56 1.24c.346.133.44.36.28.68-.907 1.813-2.174 3.147-3.8 4-1.627.853-3.4 1.28-5.32 1.28zm-.04-16.92c-1.227 0-2.267.347-3.12 1.04-.827.667-1.4 1.613-1.72 2.84h9.12c-.24-1.227-.734-2.173-1.48-2.84-.747-.693-1.68-1.04-2.8-1.04zM241.853 31c-.346 0-.52-.173-.52-.52V10.8c0-.347.174-.52.52-.52h3.76c.374 0 .56.173.56.52l.12 2.6c.694-1.12 1.614-1.96 2.76-2.52 1.147-.587 2.334-.88 3.56-.88.534 0 1 .04 1.4.12.294.08.44.267.44.56v4.12c0 .347-.186.493-.56.44-.266-.027-.56-.053-.88-.08a5.92 5.92 0 0 0-1.04-.08c-.933 0-1.813.213-2.64.64-.826.4-1.506.987-2.04 1.76-.506.773-.76 1.707-.76 2.8v10.2c0 .347-.173.52-.52.52h-4.16zm23.561.4c-2.267 0-4.173-.467-5.72-1.4-1.52-.96-2.613-2.333-3.28-4.12-.133-.347-.013-.56.36-.64l3.64-1c.293-.08.507.027.64.32.48.827 1.067 1.413 1.76 1.76.72.32 1.52.48 2.4.48.88 0 1.6-.107 2.16-.32.587-.213.88-.613.88-1.2 0-.453-.24-.813-.72-1.08-.48-.293-1.267-.6-2.36-.92l-1-.28c-2.48-.693-4.253-1.64-5.32-2.84-1.04-1.2-1.56-2.6-1.56-4.2 0-1.173.333-2.213 1-3.12.667-.933 1.587-1.653 2.76-2.16 1.2-.533 2.573-.8 4.12-.8 2 0 3.693.427 5.08 1.28s2.4 2.16 3.04 3.92c.133.347.027.56-.32.64l-3.64 1.16c-.293.107-.52.013-.68-.28a4.05 4.05 0 0 0-1.4-1.52c-.56-.4-1.28-.6-2.16-.6-.667 0-1.24.12-1.72.36-.48.213-.72.587-.72 1.12 0 .48.24.88.72 1.2.507.293 1.333.587 2.48.88l.96.24c2.533.64 4.293 1.52 5.28 2.64 1.013 1.093 1.52 2.507 1.52 4.24 0 1.253-.36 2.36-1.08 3.32-.693.933-1.653 1.653-2.88 2.16-1.227.507-2.64.76-4.24.76z"/></svg><svg width="144" height="25" fill="none" viewBox="-4 -4 144 25" id="logo_clova_clock" x="282" y="55" xmlns="http://www.w3.org/2000/svg"><path fill="#000" fill-rule="evenodd" d="M98.109 16.427h-3.253V0h3.253v16.427zM82.024 8.554c0 2.902 1.827 4.778 4.653 4.778 1.608 0 2.974-.72 3.669-1.927l2.997 1.75c-1.38 2.249-3.866 3.59-6.666 3.59-4.635 0-8.13-3.522-8.13-8.191 0-4.67 3.495-8.19 8.13-8.19 2.777 0 5.264 1.34 6.666 3.589l-2.998 1.75c-.716-1.208-2.082-1.927-3.668-1.927-2.826 0-4.653 1.875-4.653 4.778zm23.755 5.004c-1.536 0-2.65-1.151-2.65-2.737s1.114-2.737 2.65-2.737c1.535 0 2.649 1.15 2.649 2.737 0 1.586-1.114 2.737-2.649 2.737zm0-8.66c-3.31 0-5.903 2.602-5.903 5.923s2.593 5.923 5.903 5.923c3.309 0 5.902-2.602 5.902-5.923s-2.593-5.923-5.902-5.923zm15.253 4.476c-.404-.781-1.225-1.245-2.208-1.245-1.534 0-2.605 1.106-2.605 2.692 0 1.585 1.071 2.692 2.605 2.692.989 0 1.829-.475 2.21-1.245l2.838 1.637c-.986 1.753-2.897 2.84-5.003 2.84-3.365 0-5.902-2.547-5.902-5.924 0-3.377 2.537-5.923 5.902-5.923 2.101 0 4.012 1.078 5.003 2.817l-2.84 1.659zm10.806 1.447l4.051-5.606h-3.784l-3.47 5.104V.68h-3.253v15.746h3.253v-5.14l3.693 5.14H136l-4.162-5.606zm-79.936-.038L55.768.63h3.876l-6.04 15.86H50.2L44.159.63h3.877l3.866 10.153zM20.372.63h-3.618v15.86h9.729v-3.644h-6.111V.63zm45.181 4.625l-1.786 5.17h3.572l-1.785-5.17zM63.85.63h3.407l6.039 15.86h-3.877l-.995-2.788h-5.742l-.995 2.788h-3.876L63.85.63zM39.205 11.533l-.043.052c-.04.05-.08.1-.123.148a4.67 4.67 0 0 1-3.448 1.537 4.647 4.647 0 0 1-3.62-1.732 4.738 4.738 0 0 1 0-5.955 4.65 4.65 0 0 1 3.62-1.732c1.179 0 2.306.447 3.176 1.26.141.132.28.284.438.477.694.854 1.061 1.882 1.061 2.972s-.367 2.119-1.061 2.973zm2.433-8.81A8.276 8.276 0 0 0 35.591.12a8.326 8.326 0 0 0-6.488 3.102 8.49 8.49 0 0 0-.725 9.627c.214.366.457.717.726 1.049a8.33 8.33 0 0 0 6.487 3.101c2.48 0 4.82-1.1 6.417-3.016.014-.016.069-.089.069-.089a8.493 8.493 0 0 0 1.892-5.335 8.492 8.492 0 0 0-2.331-5.837zm-29.72 8.906c.01-.014.022-.027.034-.04l.038-.05 2.87 2.367h-.001l-.065.078A8.34 8.34 0 0 1 8.377 17C3.757 17 0 13.214 0 8.56S3.758.12 8.377.12c2.48 0 4.82 1.1 6.417 3.017l.065.077-2.87 2.368a4.667 4.667 0 0 0-3.612-1.731c-2.578 0-4.675 2.113-4.675 4.71S5.8 13.27 8.377 13.27c1.305 0 2.561-.56 3.447-1.537l.059-.063.034-.041z" clip-rule="evenodd"/></svg><svg width="153" height="25" fill="none" viewBox="-4 -4 153 25" id="logo_clova_clock_plus" y="252" xmlns="http://www.w3.org/2000/svg"><path fill="#000" fill-rule="evenodd" d="M98.3 16.427h-3.26V0h3.26v16.427zm-11.454-3.095c-2.832 0-4.662-1.876-4.662-4.778 0-2.903 1.83-4.778 4.662-4.778 1.59 0 2.958.72 3.675 1.926l3.004-1.75C92.12 1.705 89.629.364 86.845.364c-4.643 0-8.145 3.522-8.145 8.19 0 4.67 3.502 8.191 8.146 8.191 2.805 0 5.297-1.34 6.679-3.589l-3.003-1.75c-.696 1.207-2.065 1.927-3.676 1.927zm55.529-9.84V.872h-2.174v2.62h-2.626v2.17h2.626v2.62h2.174v-2.62H145v-2.17h-2.625zm-36.39 10.066c-1.539 0-2.655-1.151-2.655-2.737s1.116-2.737 2.655-2.737c1.538 0 2.655 1.15 2.655 2.737 0 1.586-1.117 2.737-2.655 2.737zm0-8.66c-3.317 0-5.914 2.602-5.914 5.923s2.597 5.923 5.914 5.923c3.316 0 5.913-2.602 5.913-5.923s-2.597-5.923-5.913-5.923zm15.283 4.476c-.405-.781-1.228-1.245-2.212-1.245-1.537 0-2.61 1.106-2.61 2.692 0 1.585 1.073 2.692 2.61 2.692.991 0 1.832-.475 2.214-1.245l2.843 1.637c-.988 1.753-2.902 2.84-5.012 2.84-3.372 0-5.914-2.547-5.914-5.924 0-3.377 2.542-5.923 5.914-5.923 2.105 0 4.019 1.078 5.012 2.817l-2.845 1.659zm10.827 1.447l4.059-5.606h-3.792l-3.477 5.104V.68h-3.258v15.746h3.258v-5.14l3.701 5.14h3.679l-4.17-5.606zm-80.092-.038L55.876.63h3.884l-6.05 15.86h-3.414L44.245.63h3.884l3.874 10.153zM20.412.63h-3.625v15.86h9.748v-3.644h-6.123V.63zm45.27 4.625l-1.79 5.17h3.578l-1.789-5.17zM63.973.63h3.414l6.05 15.86h-3.883l-.998-2.788h-5.752l-.997 2.788h-3.885L63.974.63zM39.281 11.533l-.042.052c-.04.05-.08.1-.124.148a4.681 4.681 0 0 1-3.454 1.537 4.658 4.658 0 0 1-3.627-1.732 4.735 4.735 0 0 1-1.057-2.978c0-1.082.376-2.14 1.057-2.977a4.654 4.654 0 0 1 6.809-.472c.14.132.28.284.438.477.696.854 1.064 1.882 1.064 2.972s-.368 2.119-1.064 2.973zm2.439-8.81A8.303 8.303 0 0 0 35.66.12a8.347 8.347 0 0 0-6.5 3.102 8.483 8.483 0 0 0-1.893 5.337 8.509 8.509 0 0 0 1.893 5.339 8.361 8.361 0 0 0 12.93.085c.014-.016.069-.089.069-.089a8.484 8.484 0 0 0 1.895-5.335 8.483 8.483 0 0 0-2.334-5.837zm-29.78 8.906l.035-.04.039-.05 2.874 2.367-.065.078A8.362 8.362 0 0 1 8.393 17C3.765 17 0 13.214 0 8.56S3.765.12 8.393.12a8.36 8.36 0 0 1 6.43 3.017l.065.077-2.876 2.368a4.68 4.68 0 0 0-3.619-1.731c-2.582 0-4.683 2.113-4.683 4.71s2.1 4.709 4.683 4.709a4.68 4.68 0 0 0 3.454-1.537l.059-.063.034-.041z" clip-rule="evenodd"/></svg><svg width="168" height="25" fill="none" viewBox="-4 -4 168 25" id="logo_clova_clock_plus2" y="202" xmlns="http://www.w3.org/2000/svg"><g clip-path="url(#ea)"><path fill="#000" d="M99.207.175h-3.403v16.3h3.403V.174zm7.765 4.776c1.68 0 3.098.548 4.232 1.665 1.134 1.117 1.701 2.541 1.701 4.25s-.567 3.155-1.701 4.272c-1.134 1.117-2.53 1.665-4.232 1.665a5.78 5.78 0 0 1-2.277-.411 5.774 5.774 0 0 1-1.933-1.276c-1.134-1.117-1.701-2.541-1.701-4.25s.567-3.133 1.701-4.25a5.81 5.81 0 0 1 4.21-1.665zm0 8.72a2.485 2.485 0 0 0 1.789-.724c.48-.482.72-1.16.72-2.081 0-.92-.24-1.577-.72-2.06a2.574 2.574 0 0 0-3.556.023c-.501.482-.741 1.16-.741 2.037 0 .876.24 1.577.741 2.06a2.341 2.341 0 0 0 1.767.744zm30.778-8.369l-4.34 4.688 4.428 6.484h-4.167l-2.617-3.921-1.113 1.183v2.738h-3.403V.175h3.403v8.873l3.403-3.746h4.406zm-43.8 8.588l-2.902-2.39-.043.044c-.022.022-.044.066-.066.088l-.065.065a4.707 4.707 0 0 1-7.386-.493 4.762 4.762 0 0 1-.018-5.359 4.724 4.724 0 0 1 2.183-1.75 4.702 4.702 0 0 1 2.785-.205 4.72 4.72 0 0 1 2.414 1.41c.063.07.122.142.175.22l2.9-2.388-.065-.088A8.28 8.28 0 0 0 87.406 0a8.442 8.442 0 0 0-4.076 1.043 8.475 8.475 0 0 0-3.072 2.885 8.515 8.515 0 0 0-1.31 4.013 8.507 8.507 0 0 0 3.442 7.415 8.435 8.435 0 0 0 11.493-1.401l.066-.066zm26.415-.22a2.758 2.758 0 0 1-2.352-1.297 2.792 2.792 0 0 1 .739-3.754 2.755 2.755 0 0 1 2.667-.3c.433.18.814.47 1.106.838l2.443-1.993a5.878 5.878 0 0 0-6.548-1.832 5.9 5.9 0 0 0-2.837 2.17 5.932 5.932 0 0 0-1.069 3.417 5.93 5.93 0 0 0 1.089 3.41 5.874 5.874 0 0 0 9.387.283l-2.443-1.993a2.83 2.83 0 0 1-2.182 1.051zm26.853-10.252h-3.229V.175h-2.072v3.243h-3.228V5.52h3.228v3.242h2.072V5.52h3.229V3.418zM56.78.504l-3.905 10.23L48.971.505h-3.927l6.108 15.97h3.447L60.684.504H56.78zm-36.21 0h-3.643v15.97h9.816v-3.658H20.57V.504zm48.25 0h-3.446l-6.107 15.97h3.904l1.003-2.804h5.803l1.003 2.804h3.905L68.82.504zm-3.511 9.88l1.81-5.214 1.81 5.214h-3.62zM42.056 2.629A8.394 8.394 0 0 0 32.175.897a8.413 8.413 0 0 0-2.77 2.236 8.513 8.513 0 0 0-.721 9.683c.215.372.463.724.742 1.051A8.42 8.42 0 0 0 35.917 17a8.429 8.429 0 0 0 6.531-3.045.808.808 0 0 0 .066-.088 8.46 8.46 0 0 0 0-10.734 5.338 5.338 0 0 0-.458-.504zM39.613 11.5l-.044.044c-.044.044-.087.11-.13.153a4.714 4.714 0 0 1-3.623 1.555 4.718 4.718 0 0 1-3.533-1.752 4.849 4.849 0 0 1-1.068-3.001 4.744 4.744 0 0 1 2.832-4.358 4.707 4.707 0 0 1 5.108.875c.161.145.307.307.436.482a4.675 4.675 0 0 1 1.069 3.001 4.613 4.613 0 0 1-1.047 3.001zm-24.605 2.39l-2.903-2.39-.043.044c-.022.022-.044.066-.066.088l-.065.066a4.718 4.718 0 0 1-2.402 1.428 4.7 4.7 0 0 1-4.975-1.927 4.742 4.742 0 0 1 .558-6.022 4.712 4.712 0 0 1 3.329-1.388 4.767 4.767 0 0 1 3.468 1.533c.063.07.122.142.175.22l2.9-2.388-.065-.088A8.3 8.3 0 0 0 8.464 0 8.461 8.461 0 0 0 2.48 2.492a8.532 8.532 0 0 0-.953 10.885 8.46 8.46 0 0 0 4.04 3.113 8.424 8.424 0 0 0 5.086.219 8.46 8.46 0 0 0 4.29-2.754l.065-.066zm134.216-.045l5.323-5.564c.938-.964 1.614-1.884 1.614-2.826 0-1.008-.633-1.687-1.702-1.687-1.112 0-1.897.723-2.334 1.73l-3.053-1.796c1.025-2.366 3.162-3.483 5.344-3.483 2.836 0 5.366 1.862 5.366 5.083 0 1.906-1.025 3.549-2.465 5.016l-2.639 2.673H160v3.505h-10.798v-2.65h.022z"/></g><defs><clipPath id="ea"><path fill="#fff" d="M0 0h160v17H0z"/></clipPath></defs></svg><svg width="161" height="25" fill="none" viewBox="-4 -4 161 25" id="logo_clova_friends" y="227" xmlns="http://www.w3.org/2000/svg"><path fill="#000" fill-rule="evenodd" d="M11.889 11.45l.044-.053.039-.047 2.865 2.351-.066.078a8.338 8.338 0 0 1-6.407 2.997C3.752 16.776 0 13.014 0 8.388 0 3.762 3.752 0 8.364 0a8.336 8.336 0 0 1 6.407 2.998l.065.077-2.866 2.353a4.675 4.675 0 0 0-3.606-1.721c-2.573 0-4.667 2.1-4.667 4.681S5.79 13.07 8.364 13.07a4.67 4.67 0 0 0 3.442-1.527l.059-.063.024-.029zm27.256-.107l-.043.052c-.04.05-.08.1-.123.147a4.65 4.65 0 0 1-7.057-.193 4.694 4.694 0 0 1 0-5.92 4.65 4.65 0 0 1 6.785-.469c.141.131.28.282.438.474.693.849 1.06 1.87 1.06 2.954s-.367 2.105-1.06 2.955zm2.43-8.757A8.287 8.287 0 0 0 35.536 0a8.332 8.332 0 0 0-6.479 3.083 8.42 8.42 0 0 0-1.886 5.305 8.43 8.43 0 0 0 1.887 5.306 8.328 8.328 0 0 0 6.478 3.082 8.34 8.34 0 0 0 6.407-2.997c.014-.016.068-.088.068-.088a8.423 8.423 0 0 0 1.89-5.303 8.42 8.42 0 0 0-2.328-5.803zm59.202-2.57c-1.062 0-1.96.9-1.96 1.966 0 1.066.898 1.966 1.96 1.966 1.063 0 1.961-.9 1.961-1.966 0-1.066-.898-1.966-1.961-1.966zM79.1 16.207h3.472v-5.791h5.843V7.069h-5.843V3.903h5.955V.557H79.1v15.65zm14.738-9.182l-.12-.018V5.063H90.47v11.144h3.248v-5.031c0-1.976 1.536-2.677 2.851-2.677.176 0 .35.012.52.036V4.838c-1.31.021-2.808.7-3.25 2.187zm8.564 9.182h-3.248V5.064h3.248v11.143zm5.171-6.76l-.021.078h4.993l-.022-.078c-.319-1.16-1.209-1.825-2.442-1.825-1.295 0-2.186.648-2.508 1.825zm-3.384 1.188c0-3.411 2.487-5.887 5.915-5.887 3.219 0 5.646 2.531 5.646 5.887 0 .448-.041.882-.123 1.29h-8.015l.03.083c.391 1.074 1.318 1.618 2.754 1.618.862 0 1.669-.313 2.169-.84l2.595 1.496c-1.094 1.487-2.711 2.24-4.809 2.24-3.628 0-6.162-2.42-6.162-5.887zm19.994-5.887c-1.387 0-2.54.492-3.164 1.35l-.111.152V5.063h-3.248v11.144h3.248v-6.09c0-1.515.784-2.383 2.151-2.383.975 0 2.017.555 2.017 2.113v6.36h3.247V9.351c0-3.18-2.079-4.603-4.14-4.603zm8.938 5.887c0 1.681 1.099 2.811 2.735 2.811 1.637 0 2.736-1.13 2.736-2.81 0-1.683-1.099-2.812-2.736-2.812-1.636 0-2.735 1.13-2.735 2.811zm5.363-4.534l.108.125V.556h3.247v15.651h-3.247v-1.162l-.108.124c-.778.898-1.889 1.354-3.302 1.354-2.977 0-5.309-2.586-5.309-5.888 0-3.3 2.332-5.887 5.309-5.887 1.413 0 2.524.455 3.302 1.353zm10.482 3.134l-.004-.002c-.923-.244-1.652-.436-1.652-.941 0-.434.376-.693 1.006-.693.661 0 1.162.317 1.53.97l2.765-1.496c-.898-1.479-2.459-2.325-4.295-2.325-2.162 0-4.342 1.124-4.342 3.634 0 2.446 2.222 3.067 3.845 3.52l.003.001c.938.263 1.679.47 1.679.963 0 .347-.221.76-1.275.76-.97 0-1.623-.437-1.944-1.3l-2.807 1.602c.84 1.698 2.481 2.595 4.751 2.595 2.23 0 4.612-.955 4.612-3.634 0-2.634-2.237-3.224-3.872-3.654zm-97.144 1.362l3.86-10.09h3.87l-6.03 15.763h-3.4L44.092.506h3.87l3.86 10.091zM20.34.507h-3.612V16.27h9.714v-3.622H20.34V.506zm45.112 4.596l-1.783 5.14h3.566l-1.783-5.14zm-1.7-4.597h3.4l6.03 15.764h-3.87l-.994-2.771h-5.733l-.993 2.77h-3.87L63.752.507z" clip-rule="evenodd"/></svg><svg width="208" height="25" fill="none" viewBox="-4 -4 208 25" id="logo_clova_friends_mini" y="125" xmlns="http://www.w3.org/2000/svg"><path fill="#000" fill-rule="evenodd" d="M11.894 11.479l.069-.081.038-.048 2.872 2.352-.065.077a8.37 8.37 0 0 1-6.423 2.998C3.76 16.777 0 13.014 0 8.388 0 3.763 3.761 0 8.385 0a8.371 8.371 0 0 1 6.423 2.998l.065.077L12 5.428a4.69 4.69 0 0 0-3.615-1.721c-2.58 0-4.68 2.1-4.68 4.681 0 2.582 2.1 4.681 4.68 4.681a4.685 4.685 0 0 0 3.45-1.527l.059-.063zm27.347-.136l-.042.052c-.04.05-.08.1-.124.147a4.69 4.69 0 0 1-3.45 1.527c-1.41 0-2.73-.627-3.624-1.72a4.696 4.696 0 0 1-1.055-2.96 4.686 4.686 0 0 1 4.678-4.682c1.18 0 2.308.445 3.179 1.253.141.131.28.282.438.475a4.614 4.614 0 0 1 1.063 2.953 4.62 4.62 0 0 1-1.063 2.955zm2.436-8.757A8.311 8.311 0 0 0 35.624 0a8.357 8.357 0 0 0-6.494 3.083 8.4 8.4 0 0 0-1.89 5.305 8.41 8.41 0 0 0 1.89 5.306 8.356 8.356 0 0 0 6.494 3.083 8.368 8.368 0 0 0 6.423-2.998c.014-.016.069-.088.069-.088a8.413 8.413 0 0 0 1.893-5.303 8.405 8.405 0 0 0-2.332-5.802zm57.383-.613c0-1.066.9-1.966 1.966-1.966 1.065 0 1.965.9 1.965 1.966 0 1.066-.9 1.966-1.965 1.966-1.066 0-1.966-.9-1.966-1.966zM79.295 16.198h3.48v-5.791h5.858V7.06h-5.857V3.894h5.969V.548h-9.45v15.65zM94.07 7.016l-.12-.018V5.054h-3.256v11.144h3.256v-5.031c0-1.976 1.54-2.676 2.858-2.676.176 0 .35.011.52.035V4.83c-1.313.021-2.814.7-3.258 2.187zm5.33 9.182h3.255V5.055H99.4v11.143zm8.439-6.76l-.021.078h5.005l-.022-.078c-.32-1.16-1.212-1.825-2.447-1.825-1.299 0-2.192.648-2.515 1.825zm-3.392 1.188c0-3.411 2.493-5.887 5.929-5.887 3.227 0 5.66 2.531 5.66 5.887 0 .448-.041.882-.123 1.29h-8.035l.03.084c.392 1.073 1.321 1.617 2.761 1.617.864 0 1.673-.313 2.174-.84l2.601 1.496c-1.096 1.487-2.717 2.24-4.82 2.24-3.637 0-6.177-2.42-6.177-5.887zm20.043-5.887c-1.39 0-2.546.492-3.172 1.35l-.111.152V5.054h-3.256v11.144h3.256v-6.09c0-1.514.786-2.383 2.156-2.383.978 0 2.022.555 2.022 2.113v6.36h3.255V9.342c0-3.18-2.084-4.603-4.15-4.603zm8.959 5.887c0 1.681 1.102 2.811 2.743 2.811 1.641 0 2.742-1.13 2.742-2.81 0-1.683-1.101-2.811-2.742-2.811s-2.743 1.128-2.743 2.81zm5.377-4.534l.108.126V.548h3.256v15.65h-3.256v-1.162l-.108.124c-.78.898-1.893 1.354-3.31 1.354-2.984 0-5.322-2.586-5.322-5.888 0-3.3 2.338-5.887 5.322-5.887 1.417 0 2.531.455 3.31 1.353zm10.508 3.134l-.004-.002c-.926-.244-1.656-.436-1.656-.941 0-.434.377-.693 1.008-.693.663 0 1.166.317 1.534.97l2.772-1.496c-.9-1.479-2.465-2.325-4.306-2.325-2.167 0-4.353 1.124-4.353 3.634 0 2.446 2.228 3.067 3.855 3.52l.003.001c.94.263 1.683.47 1.683.963 0 .347-.221.76-1.278.76-.972 0-1.627-.437-1.948-1.3l-2.814 1.602c.842 1.698 2.487 2.595 4.762 2.595 2.236 0 4.624-.955 4.624-3.634 0-2.634-2.243-3.224-3.882-3.654zm17.783-3.017c.679-.97 1.76-1.461 3.216-1.461 2.562 0 4.218 1.807 4.218 4.603v6.856h-3.256V9.644c0-1.214-.613-1.91-1.683-1.91-1.156 0-1.819.794-1.819 2.18v6.293h-3.255V9.644c0-1.214-.614-1.91-1.684-1.91-1.156 0-1.819.794-1.819 2.18v6.293h-3.255V5.063h3.255V6.24l.113-.167c.578-.854 1.632-1.325 2.967-1.325 1.261 0 2.264.505 2.9 1.46l.05.075.052-.074zM178.622.016c-1.066 0-1.966.9-1.966 1.966 0 1.066.9 1.966 1.966 1.966 1.065 0 1.965-.9 1.965-1.966 0-1.066-.9-1.966-1.965-1.966zm1.628 16.191h-3.255V5.063h3.255v11.144zm9.14-11.46c-1.39 0-2.546.493-3.172 1.35l-.111.153V5.063h-3.256v11.144h3.256v-6.09c0-1.515.786-2.383 2.156-2.383.978 0 2.022.555 2.022 2.113v6.36h3.255V9.351c0-3.18-2.085-4.603-4.15-4.603zm9.85 11.46h-3.255V5.063h3.255v11.144zm-1.628-12.259c1.066 0 1.966-.9 1.966-1.966 0-1.066-.9-1.966-1.966-1.966-1.065 0-1.966.9-1.966 1.966 0 1.066.901 1.966 1.966 1.966zM51.95 10.598L55.82.506h3.879L53.654 16.27h-3.409L44.2.507h3.88l3.87 10.09zM20.39.506h-3.62V16.27h9.737v-3.622H20.39V.507zm45.224 4.596l-1.788 5.14h3.575l-1.787-5.14zM63.909.507h3.41l6.045 15.763h-3.88l-.997-2.77h-5.746l-.996 2.77h-3.88L63.908.507z" clip-rule="evenodd"/></svg><svg width="174" height="25" fill="none" viewBox="-4 -4 174 25" id="logo_clova_friends_plus" y="177" xmlns="http://www.w3.org/2000/svg"><path fill="#000" fill-rule="evenodd" d="M12.295 11.59l.035-.04.04-.049 2.96 2.383-.067.078A8.688 8.688 0 0 1 8.643 17C3.876 17 0 13.187 0 8.5 0 3.812 3.877 0 8.642 0a8.682 8.682 0 0 1 6.62 3.038l.068.078L12.369 5.5a4.872 4.872 0 0 0-3.727-1.744C5.983 3.756 3.82 5.884 3.82 8.5c0 2.616 2.163 4.743 4.822 4.743a4.865 4.865 0 0 0 3.557-1.548l.06-.063.036-.041zm28.152-.096l-.044.053c-.041.05-.083.1-.127.148a4.87 4.87 0 0 1-7.292-.196A4.706 4.706 0 0 1 31.896 8.5c0-1.09.387-2.155 1.088-2.999a4.838 4.838 0 0 1 3.734-1.745c1.216 0 2.38.452 3.277 1.27.145.133.289.286.452.48A4.631 4.631 0 0 1 41.542 8.5a4.635 4.635 0 0 1-1.095 2.994zm2.51-8.874A8.638 8.638 0 0 0 36.718 0a8.672 8.672 0 0 0-6.693 3.124A8.429 8.429 0 0 0 28.076 8.5a8.415 8.415 0 0 0 1.95 5.377A8.672 8.672 0 0 0 36.717 17a8.683 8.683 0 0 0 6.62-3.037c.015-.017.071-.09.071-.09A8.429 8.429 0 0 0 45.36 8.5a8.434 8.434 0 0 0-2.404-5.88zM104.13.13c-1.098 0-2.026.912-2.026 1.993 0 1.08.928 1.992 2.026 1.992 1.098 0 2.026-.912 2.026-1.992S105.227.13 104.129.13zM85.32 16.538h-3.59V.678h9.74V4.07h-6.153v3.208h6.038v3.392h-6.037v5.869zm11.516-9.323l.124.018c.458-1.507 2.005-2.195 3.359-2.216v3.746a3.981 3.981 0 0 0-.537-.036c-1.359 0-2.946.71-2.946 2.712v5.098H93.48V5.245h3.356v1.97zm8.972 9.323h-3.355V5.245h3.355v11.293zm5.322-6.771l.022-.08c.332-1.193 1.253-1.85 2.592-1.85 1.273 0 2.193.675 2.523 1.85l.022.08h-5.159zm2.637-4.842c-3.542 0-6.112 2.51-6.112 5.966 0 3.513 2.619 5.966 6.367 5.966 2.167 0 3.838-.764 4.969-2.27l-2.681-1.516c-.517.534-1.351.851-2.241.851-1.485 0-2.442-.551-2.846-1.64l-.031-.083h8.281c.085-.414.127-.854.127-1.308 0-3.4-2.507-5.966-5.833-5.966zm11.278 1.368c.645-.87 1.836-1.368 3.269-1.368 2.129 0 4.278 1.443 4.278 4.665v6.948h-3.355v-6.446c0-1.578-1.077-2.14-2.084-2.14-1.412 0-2.223.88-2.223 2.414v6.172h-3.355V5.245h3.355v1.203l.115-.155zm15.331 7.447c-1.691 0-2.827-1.145-2.827-2.849 0-1.704 1.136-2.848 2.827-2.848s2.826 1.144 2.826 2.848-1.135 2.849-2.826 2.849zm2.826-7.316l-.111-.127c-.803-.91-1.951-1.372-3.412-1.372-3.075 0-5.485 2.621-5.485 5.966 0 3.346 2.41 5.966 5.485 5.966 1.46 0 2.608-.461 3.412-1.371l.111-.127v1.179h3.356V.678h-3.356v5.746zm10.715 3.047h.005c1.689.437 4.001 1.035 4.001 3.704 0 2.714-2.462 3.682-4.766 3.682-2.346 0-4.041-.909-4.909-2.63l2.901-1.623c.331.875 1.006 1.318 2.008 1.318 1.089 0 1.317-.419 1.317-.77 0-.5-.765-.71-1.735-.976h-.003c-1.677-.46-3.973-1.09-3.973-3.568 0-2.544 2.253-3.683 4.487-3.683 1.897 0 3.51.858 4.438 2.357l-2.858 1.515c-.379-.66-.897-.982-1.58-.982-.651 0-1.039.262-1.039.701 0 .512.752.707 1.706.955zm9.374-6.127V.678h-2.243v2.666h-2.71V5.55h2.71v2.665h2.243V5.55H166V3.344h-2.71zM53.546 10.739L57.534.513h3.998l-6.23 15.974h-3.514L45.558.513h3.999l3.988 10.226zM21.017.513h-3.732v15.973h10.037v-3.67h-6.305V.513zM67.63 5.171l-1.843 5.208h3.684L67.63 5.17zM65.872.513h3.515l6.23 15.974h-4l-1.026-2.808h-5.923l-1.027 2.808h-4L65.873.513z" clip-rule="evenodd"/></svg><svg width="151" height="30" fill="none" viewBox="-4 -4 151 30" id="logo_clova_lamp" x="282" xmlns="http://www.w3.org/2000/svg"><path fill="#000" fill-rule="evenodd" d="M12.547 12.027l.036-.042.04-.05 3.022 2.472-.069.081A8.806 8.806 0 0 1 8.82 17.64C3.956 17.64 0 13.683 0 8.82 0 3.956 3.956 0 8.82 0a8.806 8.806 0 0 1 6.756 3.152l.068.081-3.021 2.474A4.935 4.935 0 0 0 8.82 3.898 4.928 4.928 0 0 0 3.898 8.82a4.928 4.928 0 0 0 4.922 4.922 4.934 4.934 0 0 0 3.63-1.606l.06-.066h.001l.036-.043zm28.73-.1l-.045.054a2.733 2.733 0 0 1-.13.155 4.931 4.931 0 0 1-3.63 1.606c-1.482 0-2.87-.66-3.81-1.81a4.92 4.92 0 0 1 3.81-8.033c1.24 0 2.428.467 3.344 1.316.148.138.295.297.46.5.732.891 1.118 1.965 1.118 3.105s-.386 2.214-1.117 3.107zm2.562-9.208A8.747 8.747 0 0 0 37.472 0a8.79 8.79 0 0 0-6.83 3.242 8.835 8.835 0 0 0-1.99 5.578 8.846 8.846 0 0 0 1.99 5.579 8.79 8.79 0 0 0 6.83 3.241 8.803 8.803 0 0 0 6.756-3.152c.015-.016.072-.093.072-.093a8.832 8.832 0 0 0 1.992-5.575 8.838 8.838 0 0 0-2.453-6.101zm25.179 2.647l-1.88 5.404h3.76l-1.88-5.404zM67.224.532h3.587l6.358 16.576h-4.081l-1.048-2.914h-6.045l-1.048 2.914h-4.081L67.224.532zm-45.776 0H17.64v16.576h10.243v-3.81H21.45V.533zm33.197 10.61l4.07-10.61h4.08l-6.358 16.576h-3.585L46.494.532h4.081l4.07 10.61zM87.07.586h-3.661v16.456h9.584v-3.519H87.07V.585zm13.796 13.553c-1.726 0-2.885-1.188-2.885-2.956s1.16-2.955 2.885-2.955c1.725 0 2.884 1.187 2.884 2.955s-1.159 2.956-2.884 2.956zm2.884-7.591l-.114-.132c-.819-.944-1.991-1.423-3.481-1.423-3.139 0-5.598 2.72-5.598 6.19 0 3.472 2.459 6.191 5.598 6.191 1.49 0 2.661-.479 3.481-1.423l.114-.131v1.222h3.425V5.324h-3.425v1.223zm15.983-.018c.714-1.02 1.852-1.537 3.382-1.537 2.696 0 4.437 1.9 4.437 4.84v7.21h-3.424V10.14c0-1.276-.645-2.008-1.771-2.008-1.216 0-1.913.835-1.913 2.292v6.617h-3.424v-6.9c0-1.277-.645-2.009-1.771-2.009-1.216 0-1.913.835-1.913 2.292v6.617h-3.425V5.324h3.425v1.238l.118-.176c.608-.899 1.716-1.394 3.122-1.394 1.326 0 2.38.531 3.049 1.536l.053.078.055-.077zm16.699 7.61c-1.725 0-2.884-1.189-2.884-2.957 0-1.768 1.159-2.955 2.884-2.955 1.726 0 2.885 1.187 2.885 2.955s-1.159 2.956-2.885 2.956zm.712-9.147c-1.491 0-2.662.48-3.482 1.423l-.114.132V5.324h-3.424V21.78h3.424v-5.96l.114.131c.82.944 1.992 1.423 3.482 1.423 3.138 0 5.598-2.72 5.598-6.19 0-3.471-2.46-6.19-5.598-6.19z" clip-rule="evenodd"/></svg><svg width="134" height="26" fill="none" viewBox="-4 -4 134 26" id="logo_clova_on" x="282" y="80" xmlns="http://www.w3.org/2000/svg"><path fill="#000" fill-rule="evenodd" d="M12.671 12.068l-.025.03-.047.056-.063.067a4.965 4.965 0 0 1-3.655 1.617 4.962 4.962 0 0 1-4.956-4.956 4.963 4.963 0 0 1 4.956-4.957c1.377 0 2.703.585 3.642 1.604.06.068.122.138.188.218l3.043-2.491-.07-.082A8.86 8.86 0 0 0 8.882 0C3.984 0 0 3.984 0 8.881c0 4.898 3.984 8.882 8.881 8.882 2.63 0 5.11-1.156 6.804-3.174l.069-.082-3.042-2.49-.04.05zm28.85-.003l.044-.055a4.886 4.886 0 0 0 1.126-3.128c0-1.148-.39-2.23-1.126-3.128a4.806 4.806 0 0 0-.464-.502 4.94 4.94 0 0 0-7.204.496 4.965 4.965 0 0 0-1.118 3.134 4.97 4.97 0 0 0 1.117 3.134 4.943 4.943 0 0 0 3.838 1.822c1.383 0 2.715-.59 3.656-1.617.045-.05.088-.103.13-.156zM37.733 0a8.804 8.804 0 0 1 6.877 3.266 8.898 8.898 0 0 1 2.005 5.616c0 2.037-.713 4.03-2.006 5.614l-.072.094a8.866 8.866 0 0 1-6.804 3.173 8.856 8.856 0 0 1-7.648-4.367 8.912 8.912 0 0 1-1.233-4.514c0-2.043.711-4.038 2.002-5.618A8.863 8.863 0 0 1 37.735 0zM86.44 8.875c0 2.913 2.076 5.028 4.933 5.028 2.858 0 4.933-2.115 4.933-5.028 0-2.914-2.075-5.029-4.933-5.029-2.857 0-4.933 2.115-4.933 5.029zm-3.686 0c0-4.833 3.786-8.62 8.62-8.62 4.833 0 8.62 3.787 8.62 8.62 0 4.833-3.787 8.619-8.62 8.619-4.834 0-8.62-3.786-8.62-8.62zM105.297.589l6.542 9.207V.589h3.687v16.572h-2.765l-6.541-9.207v9.206h-3.687V.59h2.764zM59.126.536l-4.1 10.685L50.929.536h-4.11l6.403 16.69h3.61L63.235.537h-4.11zm-41.363 0h3.835v12.856h6.48v3.835H17.763V.536zm49.844 10.309L69.5 5.404l1.892 5.44h-3.786zM69.5.536h-1.806l-6.403 16.69h4.11l1.055-2.933h6.086l1.056 2.934h4.11L71.306.537h-1.805zm53.414.053v2.785h2.785V5.68h-2.785v2.785h-2.306V5.68h-2.785V3.374h2.785V.59h2.306z" clip-rule="evenodd"/></svg><svg width="147" height="25" fill="none" viewBox="-4 -4 147 25" id="logo_clova_wave" x="282" y="30" xmlns="http://www.w3.org/2000/svg"><path fill="#000" fill-rule="evenodd" d="M11.881 11.45l.044-.053.039-.047 2.863 2.351-.065.078a8.333 8.333 0 0 1-6.403 2.997C3.749 16.776 0 13.014 0 8.388 0 3.762 3.75 0 8.359 0a8.333 8.333 0 0 1 6.403 2.997l.064.078-2.863 2.352a4.666 4.666 0 0 0-3.604-1.72c-2.572 0-4.665 2.1-4.665 4.681S5.787 13.07 8.36 13.07a4.67 4.67 0 0 0 3.44-1.527l.058-.063.024-.03zm27.238-.107l-.042.051c-.04.05-.08.1-.123.148a4.644 4.644 0 0 1-7.052-.194c-.679-.833-1.053-1.884-1.053-2.96s.374-2.127 1.053-2.96a4.642 4.642 0 0 1 6.781-.468c.14.13.279.282.436.474.693.849 1.06 1.87 1.06 2.954s-.367 2.105-1.06 2.954zm2.428-8.757A8.273 8.273 0 0 0 35.513 0a8.324 8.324 0 0 0-6.474 3.083 8.424 8.424 0 0 0-1.884 5.305c0 1.503.406 2.98 1.16 4.264.214.364.456.712.725 1.042a8.32 8.32 0 0 0 6.473 3.082 8.333 8.333 0 0 0 6.404-2.997l.068-.088a8.428 8.428 0 0 0 1.887-5.303 8.423 8.423 0 0 0-2.325-5.803zM16.718.506h3.61v12.142h6.098v3.622h-9.708V.506zm35.07 10.091L55.646.507h3.867L53.487 16.27h-3.399L44.064.506h3.867l3.858 10.091zM95.608.557l-2.76 11.223L89.764.556H86.94L83.858 11.78 81.096.556h-3.644l4.3 15.65h3.994l2.607-9.476 2.606 9.477h3.993l4.3-15.65H95.61zm33.329 0v15.65h9.758V12.86h-6.288V9.943h5.614V6.64h-5.614V3.903h6.176V.556h-9.646zm-9.637 10.04L115.442.508h-3.868L117.6 16.27h3.399L127.025.507h-3.868l-3.857 10.09zm-55.672-.355l1.782-5.14 1.782 5.14h-3.564zM65.41.506h-1.7L57.685 16.27h3.869l.993-2.771h5.728l.994 2.77h3.868L67.11.507h-1.7zm40.528 4.597l-1.782 5.139h3.563l-1.781-5.14zm-1.7-4.597h3.399l6.026 15.764h-3.868l-.993-2.771h-5.728l-.994 2.77h-3.868L104.238.507z" clip-rule="evenodd"/></svg><svg width="209" height="27" fill="none" viewBox="-4 -4 209 27" id="logo_doraemon_edition" y="98" xmlns="http://www.w3.org/2000/svg"><path fill="#000" d="M1.139 18c-.2 0-.299-.1-.299-.299V1.417c0-.2.1-.299.299-.299h5.612c2.806 0 4.93.744 6.371 2.231 1.441 1.487 2.162 3.557 2.162 6.21 0 2.637-.72 4.707-2.162 6.21C11.681 17.256 9.557 18 6.751 18H1.139zM6.406 4.039H3.945v11.04h2.461c1.87 0 3.281-.475 4.232-1.426.95-.966 1.426-2.33 1.426-4.094 0-1.779-.475-3.143-1.426-4.094-.95-.95-2.361-1.426-4.232-1.426zM23.741 18.23c-1.273 0-2.385-.26-3.335-.782a5.702 5.702 0 0 1-2.185-2.208c-.522-.935-.782-2.001-.782-3.197 0-1.211.26-2.277.782-3.197a5.544 5.544 0 0 1 2.184-2.185c.951-.537 2.063-.805 3.335-.805 1.273 0 2.377.268 3.313.805a5.506 5.506 0 0 1 2.207 2.185c.522.92.782 1.986.782 3.197 0 1.196-.26 2.262-.782 3.197a5.654 5.654 0 0 1-2.208 2.208c-.935.521-2.039.782-3.311.782zm0-2.714c.95 0 1.724-.322 2.323-.966.598-.644.896-1.48.896-2.507 0-1.027-.299-1.863-.896-2.507-.599-.644-1.373-.966-2.323-.966-.951 0-1.726.322-2.323.966-.598.644-.898 1.48-.898 2.507 0 1.027.3 1.863.898 2.507.598.644 1.372.966 2.323.966zM32.78 18c-.2 0-.299-.1-.299-.299V6.385c0-.2.1-.299.299-.299h2.162c.215 0 .322.1.322.299l.069 1.495a3.804 3.804 0 0 1 1.587-1.449 4.448 4.448 0 0 1 2.047-.506c.307 0 .575.023.805.069.169.046.253.153.253.322v2.369c0 .2-.107.284-.322.253-.153-.015-.322-.03-.506-.046a3.454 3.454 0 0 0-.598-.046c-.537 0-1.043.123-1.518.368-.475.23-.866.567-1.173 1.012-.291.445-.437.981-.437 1.61v5.865c0 .2-.1.299-.299.299H32.78zm13.92.23c-1.134 0-2.123-.26-2.966-.782-.828-.521-1.472-1.25-1.932-2.185-.445-.935-.667-2.009-.667-3.22 0-1.227.222-2.3.667-3.22.46-.935 1.104-1.664 1.932-2.185.843-.521 1.832-.782 2.967-.782.828 0 1.571.169 2.23.506a4.348 4.348 0 0 1 1.657 1.357l.069-1.334c0-.2.107-.299.322-.299h2.162c.2 0 .299.1.299.299v11.316c0 .2-.1.299-.3.299h-2.16c-.215 0-.322-.1-.322-.299l-.07-1.334a4.532 4.532 0 0 1-1.655 1.38c-.66.322-1.403.483-2.231.483zm.737-2.714c.95 0 1.725-.322 2.323-.966.598-.644.897-1.48.897-2.507 0-1.027-.3-1.863-.897-2.507-.598-.644-1.373-.966-2.323-.966s-1.725.322-2.323.966c-.598.644-.897 1.48-.897 2.507 0 1.027.299 1.863.897 2.507.598.644 1.372.966 2.323.966zm14.458 2.714c-1.242 0-2.315-.26-3.22-.782a5.487 5.487 0 0 1-2.093-2.208c-.475-.935-.713-2.001-.713-3.197 0-1.211.238-2.277.713-3.197a5.317 5.317 0 0 1 2.093-2.185c.905-.537 1.978-.805 3.22-.805 1.227 0 2.262.284 3.105.851.859.567 1.503 1.365 1.932 2.392.445 1.012.644 2.2.598 3.565-.015.2-.123.299-.322.299h-8.165c.138.813.453 1.457.943 1.932.49.46 1.135.69 1.932.69 1.196 0 2.07-.452 2.622-1.357.077-.138.207-.184.391-.138l2.047.713c.2.077.253.207.161.391-.521 1.043-1.25 1.81-2.185 2.3a6.491 6.491 0 0 1-3.059.736zm-.023-9.729c-.705 0-1.303.2-1.794.598-.475.383-.805.928-.989 1.633h5.244c-.138-.705-.422-1.25-.85-1.633-.43-.399-.967-.598-1.61-.598zM70.042 18c-.199 0-.298-.1-.298-.299V6.385c0-.2.1-.299.299-.299h2.162c.214 0 .322.1.322.299l.069 1.426a3.914 3.914 0 0 1 1.633-1.449 4.82 4.82 0 0 1 2.139-.506c.904 0 1.671.192 2.3.575a3.451 3.451 0 0 1 1.449 1.61 4.174 4.174 0 0 1 1.748-1.633 5.127 5.127 0 0 1 2.323-.552c1.303 0 2.323.391 3.059 1.173.751.782 1.127 1.855 1.127 3.22v7.452c0 .2-.1.299-.3.299h-2.391c-.2 0-.3-.1-.3-.299v-6.233c0-1.932-.705-2.898-2.115-2.898-.706 0-1.334.276-1.886.828-.552.552-.828 1.395-.828 2.53v5.773c0 .2-.1.299-.3.299h-2.391c-.2 0-.3-.1-.3-.299v-6.233c0-1.932-.705-2.898-2.115-2.898-.706 0-1.334.276-1.886.828-.552.552-.828 1.395-.828 2.53v5.773c0 .2-.1.299-.3.299h-2.391zm26.989.23c-1.273 0-2.385-.26-3.336-.782a5.707 5.707 0 0 1-2.184-2.208c-.522-.935-.782-2.001-.782-3.197 0-1.211.26-2.277.781-3.197a5.552 5.552 0 0 1 2.185-2.185c.951-.537 2.063-.805 3.336-.805 1.272 0 2.376.268 3.311.805a5.502 5.502 0 0 1 2.208 2.185c.522.92.782 1.986.782 3.197 0 1.196-.26 2.262-.782 3.197a5.66 5.66 0 0 1-2.208 2.208c-.935.521-2.039.782-3.311.782zm0-2.714c.95 0 1.724-.322 2.322-.966.599-.644.897-1.48.897-2.507 0-1.027-.299-1.863-.897-2.507-.597-.644-1.372-.966-2.322-.966-.951 0-1.726.322-2.324.966-.597.644-.896 1.48-.896 2.507 0 1.027.298 1.863.896 2.507.599.644 1.373.966 2.324.966zM106.07 18c-.199 0-.299-.1-.299-.299V6.385c0-.2.1-.299.299-.299h2.162c.215 0 .322.1.322.299l.069 1.357a4.087 4.087 0 0 1 1.702-1.403 5.104 5.104 0 0 1 2.185-.483c1.38 0 2.446.391 3.197 1.173.767.782 1.15 1.855 1.15 3.22v7.452c0 .2-.1.299-.299.299h-2.392c-.199 0-.299-.1-.299-.299v-6.233c0-.997-.184-1.725-.552-2.185-.368-.475-.943-.713-1.725-.713-.475 0-.935.123-1.38.368-.429.245-.782.613-1.058 1.104-.261.49-.391 1.12-.391 1.886v5.773c0 .2-.1.299-.299.299h-2.392zm24.219.23c-1.242 0-2.316-.26-3.22-.782a5.474 5.474 0 0 1-2.093-2.208c-.476-.935-.713-2.001-.713-3.197 0-1.211.237-2.277.713-3.197a5.317 5.317 0 0 1 2.093-2.185c.904-.537 1.978-.805 3.22-.805 1.226 0 2.261.284 3.105.851.858.567 1.502 1.365 1.932 2.392.444 1.012.644 2.2.598 3.565-.016.2-.123.299-.322.299h-8.165c.138.813.452 1.457.943 1.932.49.46 1.134.69 1.932.69 1.196 0 2.07-.452 2.622-1.357.076-.138.207-.184.391-.138l2.047.713c.199.077.253.207.161.391-.522 1.043-1.25 1.81-2.185 2.3a6.494 6.494 0 0 1-3.059.736zm-.023-9.729c-.706 0-1.304.2-1.794.598-.476.383-.805.928-.989 1.633h5.244c-.138-.705-.422-1.25-.851-1.633-.43-.399-.966-.598-1.61-.598zm12.747 9.729c-1.134 0-2.123-.26-2.967-.782-.828-.521-1.472-1.25-1.932-2.185-.444-.935-.667-2.009-.667-3.22 0-1.227.223-2.3.667-3.22.46-.935 1.104-1.664 1.932-2.185.844-.521 1.833-.782 2.967-.782.782 0 1.495.153 2.139.46a4.399 4.399 0 0 1 1.61 1.219V1.049c0-.2.1-.299.299-.299h2.392c.2 0 .299.1.299.299v16.652c0 .2-.099.299-.299.299h-2.162c-.214 0-.322-.1-.322-.299l-.069-1.334a4.535 4.535 0 0 1-1.656 1.38c-.659.322-1.403.483-2.231.483zm.736-2.714c.951 0 1.725-.322 2.323-.966.598-.644.897-1.48.897-2.507 0-1.027-.299-1.863-.897-2.507-.598-.644-1.372-.966-2.323-.966-.95 0-1.725.322-2.323.966-.598.644-.897 1.48-.897 2.507 0 1.027.299 1.863.897 2.507.598.644 1.373.966 2.323.966zM154.367 3.97c-.491 0-.905-.153-1.242-.46-.338-.307-.506-.705-.506-1.196 0-.49.168-.89.506-1.196.337-.307.751-.46 1.242-.46.49 0 .904.153 1.242.46.337.307.506.705.506 1.196 0 .49-.169.89-.506 1.196-.338.307-.752.46-1.242.46zM153.171 18c-.2 0-.299-.1-.299-.299V6.385c0-.2.099-.299.299-.299h2.392c.199 0 .299.1.299.299v11.316c0 .2-.1.299-.299.299h-2.392zm10.456.23c-1.288 0-2.277-.399-2.967-1.196-.69-.813-1.035-2.024-1.035-3.634V8.754h-1.748c-.199 0-.299-.1-.299-.299v-2.07c0-.2.1-.299.299-.299h1.748V2.889c0-.2.1-.299.299-.299h2.392c.199 0 .299.1.299.299v3.197h2.829c.199 0 .299.1.299.299v2.07c0 .2-.1.299-.299.299h-2.829v4.83c0 1.288.445 1.932 1.334 1.932.383 0 .682-.192.897-.575.107-.184.245-.23.414-.138l1.794.805c.199.092.23.253.092.483-.429.782-.958 1.334-1.587 1.656a4.099 4.099 0 0 1-1.932.483zm6.687-14.26c-.491 0-.905-.153-1.242-.46-.337-.307-.506-.705-.506-1.196 0-.49.169-.89.506-1.196.337-.307.751-.46 1.242-.46s.905.153 1.242.46c.337.307.506.705.506 1.196 0 .49-.169.89-.506 1.196-.337.307-.751.46-1.242.46zM169.118 18c-.199 0-.299-.1-.299-.299V6.385c0-.2.1-.299.299-.299h2.392c.199 0 .299.1.299.299v11.316c0 .2-.1.299-.299.299h-2.392zm11.422.23c-1.272 0-2.384-.26-3.335-.782a5.716 5.716 0 0 1-2.185-2.208c-.521-.935-.782-2.001-.782-3.197 0-1.211.261-2.277.782-3.197a5.552 5.552 0 0 1 2.185-2.185c.951-.537 2.063-.805 3.335-.805 1.273 0 2.377.268 3.312.805a5.502 5.502 0 0 1 2.208 2.185c.522.92.782 1.986.782 3.197 0 1.196-.26 2.262-.782 3.197a5.66 5.66 0 0 1-2.208 2.208c-.935.521-2.039.782-3.312.782zm0-2.714c.951 0 1.725-.322 2.323-.966.598-.644.897-1.48.897-2.507 0-1.027-.299-1.863-.897-2.507-.598-.644-1.372-.966-2.323-.966-.95 0-1.725.322-2.323.966-.598.644-.897 1.48-.897 2.507 0 1.027.299 1.863.897 2.507.598.644 1.373.966 2.323.966zM189.58 18c-.2 0-.299-.1-.299-.299V6.385c0-.2.099-.299.299-.299h2.162c.214 0 .322.1.322.299l.069 1.357a4.08 4.08 0 0 1 1.702-1.403 5.104 5.104 0 0 1 2.185-.483c1.38 0 2.445.391 3.197 1.173.766.782 1.15 1.855 1.15 3.22v7.452c0 .2-.1.299-.299.299h-2.392c-.2 0-.299-.1-.299-.299v-6.233c0-.997-.184-1.725-.552-2.185-.368-.475-.943-.713-1.725-.713a2.82 2.82 0 0 0-1.38.368c-.43.245-.782.613-1.058 1.104-.261.49-.391 1.12-.391 1.886v5.773c0 .2-.1.299-.299.299h-2.392z"/></svg><svg width="193" height="27" fill="none" viewBox="-4 -4 193 27" id="logo_minions_edition" y="150" xmlns="http://www.w3.org/2000/svg"><path fill="#000" d="M1.139 18c-.2 0-.299-.1-.299-.299V1.417c0-.2.1-.299.299-.299h2.645c.169 0 .284.069.345.207l5.842 9.706 5.773-9.706a.372.372 0 0 1 .345-.207h2.576c.2 0 .299.1.299.299v16.284c0 .2-.1.299-.299.299h-2.392c-.2 0-.299-.1-.299-.299V6.293l-4.945 8.28c-.061.138-.176.207-.345.207H9.12a.372.372 0 0 1-.345-.207L3.83 6.408v11.293c0 .2-.1.299-.299.299H1.139zm21.81 0c-.2 0-.3-.1-.3-.299V1.417c0-.2.1-.299.3-.299h2.507c.199 0 .299.1.299.299v16.284c0 .2-.1.299-.3.299H22.95zm6.783 0c-.2 0-.3-.1-.3-.299V1.417c0-.2.1-.299.3-.299h2.645c.153 0 .276.069.368.207l7.544 11.661V1.417c0-.2.1-.299.299-.299h2.392c.2 0 .299.1.299.299v16.284c0 .2-.1.299-.3.299h-2.621a.422.422 0 0 1-.368-.207L32.423 6.109v11.592c0 .2-.1.299-.3.299h-2.391zm17.52 0c-.2 0-.3-.1-.3-.299V1.417c0-.2.1-.299.3-.299h2.506c.2 0 .3.1.3.299v16.284c0 .2-.1.299-.3.299h-2.507zm14.441.322c-1.64 0-3.104-.36-4.392-1.081a8.023 8.023 0 0 1-3.014-3.059c-.736-1.319-1.103-2.86-1.103-4.623 0-1.763.367-3.297 1.104-4.6.736-1.319 1.74-2.338 3.013-3.059 1.288-.736 2.752-1.104 4.392-1.104 1.641 0 3.098.368 4.37 1.104 1.288.72 2.3 1.74 3.037 3.059.736 1.303 1.104 2.837 1.104 4.6 0 1.763-.368 3.304-1.104 4.623a7.974 7.974 0 0 1-3.036 3.059c-1.273.72-2.73 1.081-4.37 1.081zm0-3.036c1.09 0 2.025-.245 2.806-.736a4.882 4.882 0 0 0 1.84-2.024c.43-.874.645-1.863.645-2.967 0-1.12-.215-2.108-.644-2.967a4.902 4.902 0 0 0-1.84-2.024c-.782-.49-1.718-.736-2.806-.736-1.074 0-2.01.245-2.806.736a4.882 4.882 0 0 0-1.84 2.024c-.43.859-.645 1.848-.645 2.967 0 1.104.215 2.093.645 2.967a4.888 4.888 0 0 0 1.84 2.024c.797.49 1.732.736 2.806.736zM73.62 18c-.199 0-.299-.1-.299-.299V1.417c0-.2.1-.299.3-.299h2.644c.154 0 .276.069.368.207l7.544 11.661V1.417c0-.2.1-.299.3-.299h2.391c.2 0 .3.1.3.299v16.284c0 .2-.1.299-.3.299h-2.622a.424.424 0 0 1-.368-.207L76.311 6.109v11.592c0 .2-.1.299-.299.299H73.62zm22.373.322c-1.58 0-2.906-.376-3.979-1.127-1.073-.767-1.832-1.878-2.277-3.335-.077-.2-.008-.322.207-.368l2.392-.575c.184-.046.307.023.368.207.307.736.713 1.28 1.219 1.633.521.353 1.211.529 2.07.529.813 0 1.472-.138 1.978-.414.506-.291.759-.751.759-1.38 0-.613-.245-1.104-.736-1.472-.49-.383-1.165-.728-2.024-1.035l-1.495-.529c-1.35-.46-2.407-1.089-3.174-1.886-.767-.813-1.15-1.825-1.15-3.036 0-.92.245-1.733.736-2.438.506-.72 1.188-1.28 2.047-1.679.859-.414 1.817-.621 2.875-.621 1.41 0 2.622.337 3.634 1.012 1.012.66 1.733 1.694 2.162 3.105.077.2.008.322-.207.368l-2.53.644c-.184.046-.307-.023-.368-.207-.276-.69-.636-1.173-1.081-1.449-.445-.291-.981-.437-1.61-.437-.736 0-1.326.146-1.771.437-.445.291-.667.682-.667 1.173 0 .521.23.974.69 1.357.46.368 1.18.72 2.162 1.058l1.196.391c1.533.506 2.668 1.158 3.404 1.955.751.797 1.127 1.894 1.127 3.289 0 .935-.253 1.771-.759 2.507-.506.72-1.204 1.288-2.093 1.702-.89.414-1.924.621-3.105.621zm18.685-.092c-1.242 0-2.315-.26-3.22-.782a5.487 5.487 0 0 1-2.093-2.208c-.475-.935-.713-2.001-.713-3.197 0-1.211.238-2.277.713-3.197a5.33 5.33 0 0 1 2.093-2.185c.905-.537 1.978-.805 3.22-.805 1.227 0 2.262.284 3.105.851.859.567 1.503 1.365 1.932 2.392.445 1.012.644 2.2.598 3.565-.015.2-.122.299-.322.299h-8.165c.138.813.453 1.457.943 1.932.491.46 1.135.69 1.932.69 1.196 0 2.07-.452 2.622-1.357.077-.138.207-.184.391-.138l2.047.713c.2.077.253.207.161.391-.521 1.043-1.249 1.81-2.185 2.3a6.491 6.491 0 0 1-3.059.736zm-.023-9.729c-.705 0-1.303.2-1.794.598-.475.383-.805.928-.989 1.633h5.244c-.138-.705-.421-1.25-.851-1.633-.429-.399-.966-.598-1.61-.598zm12.748 9.729c-1.135 0-2.124-.26-2.967-.782-.828-.521-1.472-1.25-1.932-2.185-.445-.935-.667-2.009-.667-3.22 0-1.227.222-2.3.667-3.22.46-.935 1.104-1.664 1.932-2.185.843-.521 1.832-.782 2.967-.782.782 0 1.495.153 2.139.46a4.399 4.399 0 0 1 1.61 1.219V1.049c0-.2.1-.299.299-.299h2.392c.199 0 .299.1.299.299v16.652c0 .2-.1.299-.299.299h-2.162c-.215 0-.322-.1-.322-.299l-.069-1.334a4.535 4.535 0 0 1-1.656 1.38c-.659.322-1.403.483-2.231.483zm.736-2.714c.951 0 1.725-.322 2.323-.966.598-.644.897-1.48.897-2.507 0-1.027-.299-1.863-.897-2.507-.598-.644-1.372-.966-2.323-.966-.951 0-1.725.322-2.323.966-.598.644-.897 1.48-.897 2.507 0 1.027.299 1.863.897 2.507.598.644 1.372.966 2.323.966zM138.756 3.97c-.49 0-.904-.153-1.242-.46-.337-.307-.506-.705-.506-1.196 0-.49.169-.89.506-1.196.338-.307.752-.46 1.242-.46.491 0 .905.153 1.242.46.338.307.506.705.506 1.196 0 .49-.168.89-.506 1.196-.337.307-.751.46-1.242.46zM137.56 18c-.199 0-.299-.1-.299-.299V6.385c0-.2.1-.299.299-.299h2.392c.2 0 .299.1.299.299v11.316c0 .2-.099.299-.299.299h-2.392zm10.457.23c-1.288 0-2.277-.399-2.967-1.196-.69-.813-1.035-2.024-1.035-3.634V8.754h-1.748c-.2 0-.299-.1-.299-.299v-2.07c0-.2.099-.299.299-.299h1.748V2.889c0-.2.099-.299.299-.299h2.392c.199 0 .299.1.299.299v3.197h2.829c.199 0 .299.1.299.299v2.07c0 .2-.1.299-.299.299h-2.829v4.83c0 1.288.444 1.932 1.334 1.932.383 0 .682-.192.897-.575.107-.184.245-.23.414-.138l1.794.805c.199.092.23.253.092.483-.43.782-.959 1.334-1.587 1.656a4.105 4.105 0 0 1-1.932.483zm6.687-14.26c-.491 0-.905-.153-1.242-.46-.338-.307-.506-.705-.506-1.196 0-.49.168-.89.506-1.196.337-.307.751-.46 1.242-.46.49 0 .904.153 1.242.46.337.307.506.705.506 1.196 0 .49-.169.89-.506 1.196-.338.307-.752.46-1.242.46zM153.508 18c-.2 0-.299-.1-.299-.299V6.385c0-.2.099-.299.299-.299h2.392c.199 0 .299.1.299.299v11.316c0 .2-.1.299-.299.299h-2.392zm11.422.23c-1.273 0-2.384-.26-3.335-.782a5.71 5.71 0 0 1-2.185-2.208c-.521-.935-.782-2.001-.782-3.197 0-1.211.261-2.277.782-3.197a5.546 5.546 0 0 1 2.185-2.185c.951-.537 2.062-.805 3.335-.805 1.273 0 2.377.268 3.312.805a5.502 5.502 0 0 1 2.208 2.185c.521.92.782 1.986.782 3.197 0 1.196-.261 2.262-.782 3.197s-1.257 1.671-2.208 2.208c-.935.521-2.039.782-3.312.782zm0-2.714c.951 0 1.725-.322 2.323-.966.598-.644.897-1.48.897-2.507 0-1.027-.299-1.863-.897-2.507-.598-.644-1.372-.966-2.323-.966-.951 0-1.725.322-2.323.966-.598.644-.897 1.48-.897 2.507 0 1.027.299 1.863.897 2.507.598.644 1.372.966 2.323.966zM173.969 18c-.199 0-.299-.1-.299-.299V6.385c0-.2.1-.299.299-.299h2.162c.215 0 .322.1.322.299l.069 1.357a4.087 4.087 0 0 1 1.702-1.403 5.108 5.108 0 0 1 2.185-.483c1.38 0 2.446.391 3.197 1.173.767.782 1.15 1.855 1.15 3.22v7.452c0 .2-.099.299-.299.299h-2.392c-.199 0-.299-.1-.299-.299v-6.233c0-.997-.184-1.725-.552-2.185-.368-.475-.943-.713-1.725-.713-.475 0-.935.123-1.38.368-.429.245-.782.613-1.058 1.104-.26.49-.391 1.12-.391 1.886v5.773c0 .2-.099.299-.299.299h-2.392z"/></svg></svg>