<svg width="36" height="36" viewBox="0 0 36 36" fill="none" xmlns="http://www.w3.org/2000/svg">
<path d="M36 18C36 27.9411 27.9411 36 18 36C8.05887 36 0 27.9411 0 18C0 8.05887 8.05887 0 18 0C27.9411 0 36 8.05887 36 18Z" fill="white"/>
<path fill-rule="evenodd" clip-rule="evenodd" d="M18 34C26.8366 34 34 26.8366 34 18C34 9.16344 26.8366 2 18 2C9.16344 2 2 9.16344 2 18C2 26.8366 9.16344 34 18 34ZM18 36C27.9411 36 36 27.9411 36 18C36 8.05887 27.9411 0 18 0C8.05887 0 0 8.05887 0 18C0 27.9411 8.05887 36 18 36Z" fill="#979797"/>
<path d="M26.2602 26.6339H24.2919C24.2919 23.3134 21.5067 20.6128 18.0809 20.6128C14.6551 20.6128 11.8709 23.3143 11.8709 26.6339H9.90259C9.90259 22.2269 13.5725 18.6445 18.0819 18.6445C22.5903 18.6445 26.2602 22.2269 26.2602 26.6339Z" fill="#979797"/>
<path d="M18.0819 18.0032C15.1068 18.0032 12.6848 15.5802 12.6848 12.6051C12.6838 9.62903 15.1058 7.20703 18.0819 7.20703C21.059 7.20703 23.481 9.62805 23.481 12.6051C23.481 15.5822 21.059 18.0032 18.0819 18.0032ZM18.0819 9.17534C16.1904 9.17534 14.6521 10.7136 14.6521 12.6051C14.6521 14.4967 16.1904 16.0349 18.0819 16.0349C19.9744 16.0349 21.5127 14.4967 21.5127 12.6051C21.5127 10.7136 19.9725 9.17534 18.0819 9.17534Z" fill="#979797"/>
</svg>
