<svg width="257" height="301" viewBox="0 0 257 301" fill="none" xmlns="http://www.w3.org/2000/svg">
<path fill-rule="evenodd" clip-rule="evenodd" d="M91.1211 5.5297C104.193 1.79707 120.938 -0.853285 139.167 0.254048C182.364 2.87809 213.52 15.2548 233.118 36.6379C252.888 58.2087 257.77 85.5039 255.722 111.024C253.686 136.391 244.745 161.856 234.439 183.091C224.134 204.327 211.735 222.82 201.462 234.26C201.347 234.389 201.231 234.517 201.116 234.645C208.614 238.073 222.526 242.252 248.001 245.366L243.262 284.313C208.448 280.057 185.602 273.205 171.442 262.443C165.087 267.204 158.872 271.047 152.694 274.098C136.852 281.921 122.574 283.876 109.25 284.151C103.06 284.279 97.3374 284.112 91.785 283.949C73.7163 283.421 57.447 282.946 32.7106 292.863L14.5381 300.149L0 263.72L18.1726 256.434C51.1855 243.198 76.874 244.066 95.8013 244.705C100.414 244.861 104.626 245.003 108.444 244.924C118.028 244.726 126.214 243.435 135.394 238.902C140.472 236.394 146.209 232.716 152.811 227.21C154.474 225.356 154.474 225.356 153.496 224.867C152.03 224.378 149.704 224.14 147.521 224.003C131.365 222.985 99.7457 225.697 38.3368 235.6L21.7307 202.025C44.3579 180.429 55.8153 161.227 61.3425 144.896C66.8433 128.644 66.8922 113.995 64.8225 100.759C63.2061 90.4213 60.5304 81.7712 57.8222 73.0165C56.8538 69.8858 55.8812 66.7418 54.9515 63.5024C53.3811 58.031 51.6466 51.2442 51.5164 44.5392C51.3753 37.2707 53.1109 28.1167 60.5327 20.6775C64.3542 16.8471 69.5439 13.9564 73.862 11.9085C78.715 9.60679 84.5715 7.39991 91.1211 5.5297ZM181.766 195.939C187.408 187.847 193.599 177.548 199.238 165.929C208.291 147.275 215.192 126.705 216.703 107.878C218.202 89.2037 214.338 74.1435 204.291 63.1814C194.071 52.0316 174.339 41.6981 136.799 39.4177C123.641 38.6184 111.349 40.5503 101.846 43.2638C97.4194 44.5279 93.7981 45.9048 91.1486 47.1204C91.4435 48.4995 91.8958 50.3039 92.5707 52.6552C93.1389 54.635 93.8545 56.9404 94.6538 59.5156C97.4931 68.6632 101.39 81.2165 103.495 94.6839C106.319 112.741 106.368 133.997 98.4124 157.501C94.8832 167.928 89.8628 178.55 83.0583 189.341C114.366 185.284 135.565 183.937 149.976 184.844C160.368 185.499 170.516 187.451 178.455 193.195C179.667 194.072 180.767 194.991 181.766 195.939Z" fill="white"/>
<path fill-rule="evenodd" clip-rule="evenodd" d="M123.399 13.0792C128.859 12.6628 134.59 12.5755 140.49 12.9357C145.326 13.2309 149.96 13.654 154.398 14.1992L153.225 23.8863C148.993 23.3664 144.556 22.9607 139.904 22.6767C134.475 22.3452 129.185 22.4247 124.13 22.8102L123.399 13.0792ZM181.932 19.8138C191.994 22.844 200.649 26.7481 208.016 31.4113L202.862 39.6744C196.328 35.5391 188.493 31.9755 179.156 29.1637L181.932 19.8138ZM80.2267 24.5224C82.9087 23.074 86.2155 21.5901 90.0166 20.1869L93.3504 29.3497C89.8971 30.6246 87.0171 31.9282 84.8045 33.1231C82.5115 34.3615 81.1962 35.344 80.6495 35.8947C78.9175 37.6394 78.1744 40.6338 79.4472 47.1621L69.9406 49.0427C68.5686 42.0059 68.3726 34.4602 73.7988 28.9943C75.338 27.4438 77.6251 25.9274 80.2267 24.5224ZM229.197 51.3103C234.965 59.5337 238.648 68.6301 240.675 78.1785L231.201 80.2192C229.416 71.8108 226.213 63.9676 221.285 56.9417L229.197 51.3103ZM83.5413 112.642C83.4148 101.176 81.4549 90.6572 79 81.1428L88.3767 78.6881C90.9512 88.6661 93.0908 100.015 93.2288 112.534L83.5413 112.642ZM242.304 106.927C241.594 116.221 239.837 125.619 237.359 134.84L228.007 132.29C230.357 123.548 231.989 114.759 232.645 106.178L242.304 106.927ZM65.8869 172.548C72.1047 162.482 76.3392 152.875 79.0993 143.765L88.3655 146.614C85.3487 156.571 80.7552 166.95 74.1128 177.703L65.8869 172.548ZM228.206 161.409C224.493 170.311 220.321 178.801 216.012 186.59L207.549 181.839C211.699 174.339 215.711 166.173 219.274 157.63L228.206 161.409ZM160.432 207.697C156.46 206.697 150.716 206.081 142.403 206.098L142.383 196.34C151.07 196.321 157.709 196.953 162.781 198.229C167.878 199.513 171.727 201.533 174.405 204.535L167.199 211.057C166.234 209.976 164.379 208.691 160.432 207.697ZM35.131 209.667C39.2264 205.739 42.9969 201.863 46.4651 198.041L53.616 204.625C53.1807 205.105 52.7411 205.585 52.2971 206.066C52.4535 206.041 52.6097 206.017 52.7657 205.993L54.2395 215.638C49.4367 216.383 44.4398 217.176 39.2409 218.018L35.131 209.667ZM113.097 207.846C104.568 208.683 94.8132 209.837 83.6551 211.345L82.367 201.673C93.613 200.153 103.487 198.984 112.158 198.134L113.097 207.846ZM201.046 210.298C197.979 214.526 195.004 218.25 192.239 221.344C188.692 225.314 185.261 228.942 181.933 232.256L175.122 225.315C178.304 222.147 181.605 218.658 185.038 214.816C187.542 212.013 190.311 208.557 193.224 204.541L201.046 210.298ZM201.291 257.137C193.581 254.198 189.67 252.731 186.737 250.776L194.07 243.932C195.048 244.421 197.003 245.399 204.414 247.899L201.291 257.137ZM158.781 251.586C148.759 258.228 139.537 261.973 130.563 263.996L128.447 254.473C136.231 252.718 144.372 249.454 153.457 243.433L158.781 251.586ZM246.181 266.404C240.781 265.741 235.77 265.021 231.121 264.248L232.697 254.62C237.199 255.367 242.074 256.069 247.354 256.717L246.181 266.404ZM96.3173 265.926C88.4322 265.68 80.4402 265.431 71.6217 266.079L70.9168 256.346C80.2776 255.658 88.8145 255.926 96.691 256.173C98.0091 256.215 99.3087 256.255 100.591 256.291L100.324 266.046C98.9889 266.009 97.6546 265.967 96.3173 265.926ZM43.9611 271.156C39.7131 272.419 35.2628 273.964 30.5823 275.85L26.0847 277.662L22.4866 268.601L26.9842 266.789C31.9384 264.793 36.6737 263.148 41.2176 261.797L43.9611 271.156Z" fill="#B3CBD8"/>
<path d="M153.985 225.845C171.192 212.548 179.893 200.262 181.849 196.026C177.547 190.551 165.717 186.738 161.318 186.249C157.407 188.986 145.186 212.483 139.808 223.89C150.563 223.89 154.963 224.378 153.985 225.845Z" fill="url(#paint0_linear)"/>
<path d="M201.403 234.644C193.581 246.376 183.315 253.709 171.583 262.508C178.427 267.885 188.693 272.285 193.581 273.751C197.616 271.2 208.697 250.675 214.601 239.532C206.78 237.088 205.313 236.11 201.403 234.644Z" fill="url(#paint1_linear)"/>
<defs>
<linearGradient id="paint0_linear" x1="175.494" y1="207.758" x2="157.407" y2="200.425" gradientUnits="userSpaceOnUse">
<stop stop-color="#C4C4C4"/>
<stop offset="1" stop-color="#C4C4C4" stop-opacity="0"/>
</linearGradient>
<linearGradient id="paint1_linear" x1="179.425" y1="251.542" x2="197.15" y2="259.712" gradientUnits="userSpaceOnUse">
<stop stop-color="#C4C4C4"/>
<stop offset="1" stop-color="#C4C4C4" stop-opacity="0"/>
</linearGradient>
</defs>
</svg>
