<svg width="150" height="65" viewBox="0 0 150 65" fill="none" xmlns="http://www.w3.org/2000/svg">
<path d="M51.53 24.42C50.85 23.64 50.09 23.04 49.25 22.62C48.43 22.2 47.59 21.99 46.73 21.99C45.63 21.99 44.81 22.26 44.27 22.8C43.75 23.34 43.49 23.98 43.49 24.72C43.49 25.4 43.66 25.99 44 26.49C44.36 26.97 45.02 27.42 45.98 27.84L48.92 29.13C49.7 29.47 50.43 29.83 51.11 30.21C51.81 30.59 52.42 31.04 52.94 31.56C53.48 32.06 53.9 32.65 54.2 33.33C54.52 34.01 54.68 34.83 54.68 35.79C54.68 36.71 54.49 37.58 54.11 38.4C53.73 39.22 53.19 39.94 52.49 40.56C51.81 41.18 50.98 41.67 50 42.03C49.02 42.39 47.94 42.57 46.76 42.57C45.74 42.57 44.78 42.4 43.88 42.06C42.98 41.74 42.17 41.33 41.45 40.83C40.73 40.31 40.1 39.74 39.56 39.12C39.04 38.5 38.63 37.91 38.33 37.35L40.85 34.92C41.43 36.18 42.24 37.21 43.28 38.01C44.34 38.81 45.5 39.21 46.76 39.21C47.98 39.21 48.94 38.9 49.64 38.28C50.36 37.64 50.72 36.81 50.72 35.79C50.72 35.53 50.69 35.26 50.63 34.98C50.59 34.7 50.47 34.42 50.27 34.14C50.07 33.86 49.77 33.57 49.37 33.27C48.97 32.97 48.43 32.68 47.75 32.4L44.75 31.14C43.79 30.74 42.97 30.31 42.29 29.85C41.63 29.37 41.09 28.86 40.67 28.32C40.27 27.78 39.98 27.21 39.8 26.61C39.62 26.01 39.53 25.38 39.53 24.72C39.53 23.86 39.7 23.06 40.04 22.32C40.38 21.58 40.86 20.94 41.48 20.4C42.12 19.84 42.88 19.41 43.76 19.11C44.64 18.79 45.63 18.63 46.73 18.63C48.27 18.63 49.65 18.94 50.87 19.56C52.09 20.18 53.13 21.02 53.99 22.08L51.53 24.42ZM60.958 26.61C61.538 26.05 62.238 25.6 63.058 25.26C63.898 24.92 64.698 24.75 65.458 24.75C66.978 24.75 68.238 25.07 69.238 25.71C70.238 26.33 71.028 27.17 71.608 28.23C71.928 28.83 72.138 29.5 72.238 30.24C72.358 30.98 72.418 31.77 72.418 32.61V42H68.548V32.61C68.548 32.07 68.508 31.57 68.428 31.11C68.348 30.63 68.248 30.24 68.128 29.94C67.908 29.36 67.568 28.9 67.108 28.56C66.648 28.22 66.098 28.05 65.458 28.05C64.958 28.05 64.478 28.15 64.018 28.35C63.558 28.55 63.138 28.82 62.758 29.16C62.378 29.48 62.058 29.87 61.798 30.33C61.538 30.77 61.348 31.24 61.228 31.74C61.148 32.06 61.078 32.49 61.018 33.03C60.978 33.57 60.958 34.25 60.958 35.07V42H57.118V18.63H60.958V26.61ZM88.5538 33.6C88.5538 32.72 88.4338 31.93 88.1938 31.23C87.9538 30.53 87.6138 29.94 87.1738 29.46C86.7538 28.98 86.2438 28.62 85.6438 28.38C85.0638 28.12 84.4338 27.99 83.7538 27.99C83.0738 27.99 82.4338 28.13 81.8338 28.41C81.2538 28.67 80.7438 29.05 80.3038 29.55C79.8838 30.05 79.5538 30.64 79.3138 31.32C79.0738 32 78.9538 32.76 78.9538 33.6C78.9538 34.44 79.0738 35.2 79.3138 35.88C79.5538 36.56 79.8838 37.15 80.3038 37.65C80.7438 38.15 81.2538 38.54 81.8338 38.82C82.4338 39.08 83.0738 39.21 83.7538 39.21C84.4338 39.21 85.0638 39.09 85.6438 38.85C86.2438 38.59 86.7538 38.22 87.1738 37.74C87.6138 37.26 87.9538 36.67 88.1938 35.97C88.4338 35.27 88.5538 34.48 88.5538 33.6ZM92.4238 25.2V42H88.5838V40.41C88.0438 41.05 87.3238 41.55 86.4238 41.91C85.5438 42.27 84.6538 42.45 83.7538 42.45C82.4938 42.45 81.3338 42.24 80.2738 41.82C79.2338 41.38 78.3238 40.78 77.5438 40.02C76.7838 39.24 76.1838 38.31 75.7438 37.23C75.3238 36.13 75.1138 34.92 75.1138 33.6C75.1138 32.28 75.3238 31.08 75.7438 30C76.1838 28.9 76.7838 27.97 77.5438 27.21C78.3238 26.43 79.2338 25.83 80.2738 25.41C81.3338 24.97 82.4938 24.75 83.7538 24.75C84.6538 24.75 85.5338 24.91 86.3938 25.23C87.2538 25.55 87.9838 26 88.5838 26.58V25.2H92.4238ZM105.467 28.17C104.207 28.11 103.117 28.42 102.197 29.1C101.277 29.76 100.687 30.64 100.427 31.74C100.347 32.06 100.277 32.49 100.217 33.03C100.177 33.57 100.157 34.25 100.157 35.07V42H96.3172V25.2H100.157V26.61C100.857 25.95 101.667 25.48 102.587 25.2C103.527 24.92 104.487 24.78 105.467 24.78V28.17ZM121.895 38.25C121.055 39.53 119.965 40.55 118.625 41.31C117.305 42.07 115.865 42.45 114.305 42.45C113.065 42.45 111.925 42.24 110.885 41.82C109.865 41.38 108.985 40.78 108.245 40.02C107.505 39.24 106.935 38.31 106.535 37.23C106.135 36.13 105.935 34.92 105.935 33.6C105.935 32.28 106.145 31.08 106.565 30C106.985 28.9 107.555 27.97 108.275 27.21C109.015 26.43 109.875 25.83 110.855 25.41C111.855 24.97 112.915 24.75 114.035 24.75C115.215 24.75 116.295 24.96 117.275 25.38C118.275 25.8 119.135 26.39 119.855 27.15C120.575 27.89 121.135 28.78 121.535 29.82C121.935 30.84 122.135 31.97 122.135 33.21V35.04H109.955C110.035 35.62 110.195 36.16 110.435 36.66C110.695 37.16 111.005 37.6 111.365 37.98C111.745 38.36 112.185 38.66 112.685 38.88C113.185 39.1 113.725 39.21 114.305 39.21C115.325 39.21 116.255 38.92 117.095 38.34C117.955 37.76 118.625 37.02 119.105 36.12L121.895 38.25ZM118.175 31.86C117.955 30.74 117.485 29.82 116.765 29.1C116.045 28.36 115.135 27.99 114.035 27.99C113.015 27.99 112.135 28.34 111.395 29.04C110.655 29.72 110.165 30.66 109.925 31.86H118.175Z" fill="white"/>
<path fill-rule="evenodd" clip-rule="evenodd" d="M11.8399 10.7185C13.5384 10.2335 15.7141 9.88913 18.0828 10.033C23.6956 10.374 27.7438 11.9821 30.2903 14.7606C32.8592 17.5634 33.4935 21.11 33.2274 24.426C32.9628 27.722 31.8011 31.0308 30.462 33.79C29.1229 36.5493 27.5119 38.9522 26.1771 40.4387C26.1621 40.4554 26.1471 40.4721 26.1321 40.4888C27.1064 40.9341 28.9141 41.4772 32.2242 41.8818L31.6084 46.9424C27.0847 46.3894 24.1162 45.4991 22.2764 44.1006C21.4506 44.7193 20.6431 45.2186 19.8403 45.615C17.7819 46.6315 15.9268 46.8856 14.1954 46.9213C13.3911 46.9379 12.6476 46.9162 11.9261 46.8951C9.57836 46.8265 7.4644 46.7647 4.25027 48.0533L1.88901 49L0 44.2665L2.36126 43.3199C6.65082 41.6001 9.98867 41.7128 12.448 41.7959C13.0474 41.8161 13.5946 41.8346 14.0907 41.8243C15.336 41.7986 16.3997 41.6308 17.5925 41.0418C18.2523 40.716 18.9977 40.238 19.8556 39.5227C20.0717 39.2818 20.0717 39.2818 19.9446 39.2182C19.7541 39.1547 19.4519 39.1238 19.1682 39.1059C17.069 38.9737 12.9605 39.3261 4.98132 40.6129L2.8236 36.2502C5.76367 33.4441 7.25239 30.9491 7.97058 28.8271C8.68532 26.7154 8.69168 24.812 8.42275 23.0922C8.21272 21.7489 7.86504 20.625 7.51316 19.4874C7.38733 19.0806 7.26096 18.6721 7.14015 18.2512C6.9361 17.5403 6.71073 16.6584 6.69381 15.7872C6.67547 14.8428 6.90099 13.6534 7.86535 12.6867C8.3619 12.189 9.03623 11.8134 9.5973 11.5473C10.2279 11.2483 10.9888 10.9615 11.8399 10.7185ZM23.6179 35.4595C24.351 34.408 25.1554 33.0698 25.8881 31.56C27.0644 29.1362 27.961 26.4635 28.1574 24.0172C28.3522 21.5907 27.8501 19.6339 26.5446 18.2095C25.2168 16.7608 22.6528 15.4181 17.7751 15.1218C16.0654 15.0179 14.4682 15.2689 13.2334 15.6215C12.6582 15.7857 12.1877 15.9647 11.8434 16.1226C11.8818 16.3018 11.9405 16.5363 12.0282 16.8418C12.1021 17.099 12.195 17.3986 12.2989 17.7332C12.6678 18.9218 13.1741 20.5529 13.4477 22.3028C13.8146 24.649 13.8209 27.4109 12.7873 30.465C12.3287 31.8198 11.6764 33.2 10.7922 34.6021C14.8603 34.075 17.6147 33.8999 19.4871 34.0178C20.8375 34.1029 22.1561 34.3565 23.1876 35.1029C23.3451 35.2169 23.4881 35.3363 23.6179 35.4595Z" fill="white"/>
<path fill-rule="evenodd" clip-rule="evenodd" d="M16.034 11.6995C16.7434 11.6454 17.4881 11.634 18.2548 11.6808C18.8831 11.7192 19.4852 11.7742 20.0618 11.845L19.9094 13.1037C19.3596 13.0362 18.783 12.9834 18.1786 12.9465C17.4731 12.9035 16.7858 12.9138 16.129 12.9639L16.034 11.6995ZM23.6394 12.5745C24.9469 12.9683 26.0714 13.4756 27.0288 14.0815L26.3591 15.1551C25.5101 14.6178 24.4921 14.1548 23.2789 13.7894L23.6394 12.5745ZM10.4244 13.1864C10.7729 12.9982 11.2025 12.8054 11.6964 12.623L12.1296 13.8136C11.6809 13.9793 11.3067 14.1486 11.0192 14.3039C10.7212 14.4648 10.5503 14.5925 10.4793 14.664C10.2543 14.8907 10.1577 15.2798 10.3231 16.1281L9.08784 16.3724C8.90957 15.4581 8.8841 14.4776 9.58916 13.7674C9.78915 13.566 10.0863 13.3689 10.4244 13.1864ZM29.7809 16.6671C30.5304 17.7356 31.009 18.9175 31.2724 20.1582L30.0414 20.4234C29.8094 19.3308 29.3932 18.3117 28.7528 17.3988L29.7809 16.6671ZM10.855 24.6362C10.8386 23.1464 10.584 21.7796 10.265 20.5434L11.4833 20.2244C11.8179 21.5209 12.0959 22.9955 12.1138 24.6221L10.855 24.6362ZM31.484 23.8936C31.3917 25.1013 31.1634 26.3224 30.8414 27.5205L29.6263 27.1892C29.9316 26.0532 30.1437 24.9113 30.2289 23.7963L31.484 23.8936ZM8.56112 32.4201C9.36903 31.1122 9.91924 29.8639 10.2779 28.6802L11.4819 29.0504C11.0899 30.3441 10.493 31.6927 9.62995 33.09L8.56112 32.4201ZM29.6521 30.9728C29.1697 32.1295 28.6276 33.2326 28.0677 34.2447L26.9681 33.6274C27.5073 32.6529 28.0285 31.5918 28.4915 30.4817L29.6521 30.9728ZM20.8459 36.9873C20.3298 36.8573 19.5834 36.7773 18.5033 36.7795L18.5007 35.5115C19.6295 35.5092 20.4921 35.5912 21.1511 35.7571C21.8134 35.9238 22.3135 36.1863 22.6615 36.5763L21.7251 37.4239C21.5998 37.2834 21.3587 37.1163 20.8459 36.9873ZM4.56483 37.2432C5.09698 36.7328 5.58689 36.2291 6.03754 35.7326L6.96669 36.5881C6.91013 36.6504 6.85301 36.7128 6.79532 36.7753C6.81564 36.7721 6.83594 36.769 6.8562 36.7658L7.04771 38.0191C6.42365 38.1158 5.77438 38.2189 5.09886 38.3283L4.56483 37.2432ZM14.6954 37.0067C13.5872 37.1154 12.3197 37.2654 10.8698 37.4613L10.7025 36.2045C12.1637 36.0071 13.4467 35.8552 14.5734 35.7446L14.6954 37.0067ZM26.1231 37.3252C25.7246 37.8746 25.338 38.3584 24.9787 38.7605C24.5178 39.2764 24.0721 39.7477 23.6396 40.1783L22.7547 39.2765C23.1681 38.8649 23.597 38.4115 24.043 37.9123C24.3684 37.5481 24.7282 37.0989 25.1067 36.5771L26.1231 37.3252ZM26.1549 43.4113C25.1531 43.0293 24.645 42.8388 24.2639 42.5847L25.2167 41.6955C25.3437 41.759 25.5978 41.886 26.5607 42.211L26.1549 43.4113ZM20.6314 42.69C19.3291 43.553 18.1309 44.0397 16.9649 44.3025L16.69 43.0651C17.7014 42.8371 18.7591 42.4129 19.9395 41.6306L20.6314 42.69ZM31.9877 44.6154C31.286 44.5292 30.635 44.4356 30.031 44.3353L30.2357 43.0842C30.8207 43.1813 31.4541 43.2724 32.1401 43.3567L31.9877 44.6154ZM12.5151 44.5532C11.4906 44.5213 10.4521 44.489 9.30627 44.5732L9.21468 43.3085C10.431 43.2191 11.5402 43.2539 12.5637 43.286C12.7349 43.2914 12.9038 43.2967 13.0704 43.3013L13.0357 44.5689C12.8622 44.5641 12.6889 44.5586 12.5151 44.5532ZM5.71218 45.2328C5.16021 45.397 4.58196 45.5977 3.9738 45.8427L3.3894 46.0782L2.92188 44.9009L3.50628 44.6654C4.15 44.406 4.76529 44.1923 5.35571 44.0167L5.71218 45.2328Z" fill="#B3CBD8"/>
<path d="M20.008 39.3454C22.2439 37.6177 23.3745 36.0213 23.6286 35.4708C23.0696 34.7594 21.5325 34.264 20.9608 34.2004C20.4527 34.5561 18.8647 37.6092 18.166 39.0913C19.5634 39.0913 20.1351 39.1548 20.008 39.3454Z" fill="url(#paint0_linear)"/>
<path d="M26.1694 40.4886C25.1531 42.0131 23.8192 42.9658 22.2948 44.1092C23.1841 44.8079 24.5179 45.3795 25.1531 45.5701C25.6773 45.2385 27.1172 42.5716 27.8844 41.1238C26.8681 40.8062 26.6776 40.6792 26.1694 40.4886Z" fill="url(#paint1_linear)"/>
<defs>
<linearGradient id="paint0_linear" x1="22.8028" y1="36.9952" x2="20.4527" y2="36.0425" gradientUnits="userSpaceOnUse">
<stop stop-color="#C4C4C4"/>
<stop offset="1" stop-color="#C4C4C4" stop-opacity="0"/>
</linearGradient>
<linearGradient id="paint1_linear" x1="23.3138" y1="42.6843" x2="25.6168" y2="43.7459" gradientUnits="userSpaceOnUse">
<stop stop-color="#C4C4C4"/>
<stop offset="1" stop-color="#C4C4C4" stop-opacity="0"/>
</linearGradient>
</defs>
</svg>
